<svg xmlns="http://www.w3.org/2000/svg" xmlns:xlink="http://www.w3.org/1999/xlink" viewBox="0 0 750.41 458.05"><defs><style>.cls-1,.cls-45{fill:#fdb34a;}.cls-2{fill:#35676b;}.cls-3{isolation:isolate;}.cls-4{fill:#1c607a;}.cls-11,.cls-12,.cls-5{fill:#28b6c9;}.cls-18,.cls-19,.cls-23,.cls-24,.cls-25,.cls-28,.cls-33,.cls-34,.cls-35,.cls-36,.cls-37,.cls-38,.cls-39,.cls-40,.cls-41,.cls-42,.cls-43,.cls-44,.cls-45,.cls-5,.cls-9{mix-blend-mode:soft-light;}.cls-6{fill:#f7991c;}.cls-7{fill:#165366;}.cls-8{fill:#0d3e49;}.cls-27,.cls-9{fill:#ed6c69;}.cls-10{fill:#f38347;}.cls-11{mix-blend-mode:multiply;}.cls-11,.cls-33,.cls-40{opacity:0.2;}.cls-13{fill:#42c1ce;}.cls-14{fill:#69d1e2;}.cls-15{fill:#055f66;}.cls-16{fill:#045456;}.cls-17{clip-path:url(#clip-path);}.cls-18,.cls-20,.cls-47{fill:none;stroke-miterlimit:10;}.cls-18,.cls-20{stroke:#f6f4e9;}.cls-18{stroke-width:1.05px;}.cls-20{stroke-width:2.1px;}.cls-21,.cls-28{fill:#db3e3f;}.cls-22{fill:#aa2929;}.cls-23,.cls-36{opacity:0.5;}.cls-24{fill:#f6f4e9;}.cls-26{fill:#056066;}.cls-29{clip-path:url(#clip-path-2);}.cls-30{clip-path:url(#clip-path-3);}.cls-31{fill:#a3d3e8;}.cls-32{fill:#c9e9f4;}.cls-33,.cls-34,.cls-35,.cls-36,.cls-37,.cls-38{fill:#fff;}.cls-34,.cls-41{opacity:0.3;}.cls-35,.cls-42{opacity:0.4;}.cls-37,.cls-43{opacity:0.65;}.cls-38,.cls-44{opacity:0.8;}.cls-39{opacity:0.1;}.cls-46{clip-path:url(#clip-path-4);}.cls-47{stroke:#fdb34a;stroke-width:0.52px;}</style><clipPath id="clip-path"><polygon class="cls-1" points="186.58 280.66 186.58 310.5 181.88 310.5 181.88 453.91 280.52 453.91 280.52 280.66 186.58 280.66"/></clipPath><clipPath id="clip-path-2"><polygon class="cls-2" points="392.88 453.91 392.88 388.36 387.44 388.36 387.44 289.13 367.75 278.25 321.12 278.25 321.12 298.2 315.68 298.2 315.68 453.91 392.88 453.91"/></clipPath><clipPath id="clip-path-3"><polygon class="cls-2" points="367.75 278.25 387.44 289.13 387.44 388.36 367.75 388.36 367.75 278.25"/></clipPath><clipPath id="clip-path-4"><polygon class="cls-2" points="410.03 453.91 410.03 305.71 418.32 305.71 418.32 287.84 469.1 287.84 469.1 295.87 474.8 295.87 474.8 369.71 478.94 369.71 478.94 431.37 487.49 431.37 487.49 453.91 410.03 453.91"/></clipPath></defs><g class="cls-3"><g id="Calque_2" data-name="Calque 2"><g id="OBJECTS"><rect class="cls-4" y="301.48" width="123.5" height="152.43"/><rect class="cls-5" y="301.48" width="123.5" height="152.43"/><rect class="cls-4" y="326.93" width="123.5" height="4.66"/><rect class="cls-4" y="370.31" width="123.5" height="4.66"/><rect class="cls-4" y="413.69" width="123.5" height="4.66"/><rect class="cls-4" x="18.9" y="309.56" width="3.11" height="144.34"/><rect class="cls-4" x="35.42" y="309.56" width="3.11" height="144.34"/><rect class="cls-4" x="51.94" y="309.56" width="3.11" height="144.34"/><rect class="cls-4" x="68.45" y="309.56" width="3.11" height="144.34"/><rect class="cls-4" x="84.97" y="309.56" width="3.11" height="144.34"/><rect class="cls-4" x="101.48" y="309.56" width="3.11" height="144.34"/><rect class="cls-4" x="5.89" y="280.39" width="32.24" height="21.09" transform="translate(44.02 581.87) rotate(180)"/><rect class="cls-6" x="7.31" y="275.75" width="12.84" height="4.64" transform="translate(27.47 556.14) rotate(180)"/><rect class="cls-7" x="7.31" y="275.75" width="12.84" height="4.64" transform="translate(27.47 556.14) rotate(180)"/><rect class="cls-8" x="11.86" y="268.41" width="0.61" height="7.34" transform="translate(24.33 544.16) rotate(180)"/><rect class="cls-9" x="10.36" y="286.6" width="6.74" height="14.87" transform="translate(27.47 588.08) rotate(180)"/><rect class="cls-9" x="28.19" y="286.6" width="7.22" height="5.87" transform="translate(63.6 579.08) rotate(180)"/><rect class="cls-9" x="20.15" y="286.6" width="7.22" height="5.87" transform="translate(47.53 579.08) rotate(180)"/><rect class="cls-9" x="10.36" y="286.6" width="6.74" height="14.87" transform="translate(27.47 588.08) rotate(180)"/><rect class="cls-9" x="28.19" y="286.6" width="7.22" height="5.87" transform="translate(63.6 579.08) rotate(180)"/><rect class="cls-9" x="20.15" y="286.6" width="7.22" height="5.87" transform="translate(47.53 579.08) rotate(180)"/><polygon class="cls-4" points="123.5 301.48 123.38 301.48 117.77 301.48 5.61 301.48 0 301.48 0 310.8 0 453.91 5.61 453.91 5.61 310.8 117.77 310.8 117.77 453.91 123.38 453.91 123.38 310.8 123.5 310.8 123.5 301.48"/><polygon class="cls-9" points="123.5 301.48 123.38 301.48 117.77 301.48 5.61 301.48 0 301.48 0 310.8 0 453.91 5.61 453.91 5.61 310.8 117.77 310.8 117.77 453.91 123.38 453.91 123.38 310.8 123.5 310.8 123.5 301.48"/><rect class="cls-7" x="131.79" y="246.18" width="42.52" height="14.63"/><rect class="cls-4" x="128.91" y="260.81" width="48.45" height="14.71"/><polygon class="cls-8" points="139.18 246.18 139.18 232.35 143.4 232.35 143.4 224.24 148.23 224.24 148.23 220.46 158.48 220.46 158.48 224.51 163.61 224.51 163.61 233.32 167.22 233.32 167.22 246.18 139.18 246.18"/><rect class="cls-4" x="151.7" y="196.01" width="2.86" height="24.45"/><rect class="cls-4" x="123.5" y="275.52" width="58.38" height="178.38"/><rect class="cls-10" x="126.65" y="282.13" width="2.88" height="7.9"/><rect class="cls-10" x="132.09" y="282.13" width="2.88" height="7.9"/><rect class="cls-10" x="137.53" y="282.13" width="2.88" height="7.9"/><rect class="cls-10" x="142.97" y="282.13" width="2.88" height="7.9"/><rect class="cls-10" x="148.41" y="282.13" width="2.88" height="7.9"/><rect class="cls-10" x="153.85" y="282.13" width="2.88" height="7.9"/><rect class="cls-10" x="159.29" y="282.13" width="2.88" height="7.9"/><rect class="cls-10" x="164.74" y="282.13" width="2.88" height="7.9"/><rect class="cls-10" x="170.18" y="282.13" width="2.88" height="7.9"/><rect class="cls-10" x="175.62" y="282.13" width="2.88" height="7.9"/><rect class="cls-10" x="126.65" y="282.13" width="2.88" height="7.9"/><rect class="cls-10" x="132.09" y="282.13" width="2.88" height="7.9"/><rect class="cls-10" x="137.53" y="282.13" width="2.88" height="7.9"/><rect class="cls-10" x="142.97" y="282.13" width="2.88" height="7.9"/><rect class="cls-10" x="148.41" y="282.13" width="2.88" height="7.9"/><rect class="cls-10" x="153.85" y="282.13" width="2.88" height="7.9"/><rect class="cls-10" x="159.29" y="282.13" width="2.88" height="7.9"/><rect class="cls-10" x="164.74" y="282.13" width="2.88" height="7.9"/><rect class="cls-10" x="170.18" y="282.13" width="2.88" height="7.9"/><rect class="cls-10" x="175.62" y="282.13" width="2.88" height="7.9"/><rect class="cls-10" x="126.65" y="291.88" width="2.88" height="7.9"/><rect class="cls-10" x="132.09" y="291.88" width="2.88" height="7.9"/><rect class="cls-10" x="137.53" y="291.88" width="2.88" height="7.9"/><rect class="cls-10" x="142.97" y="291.88" width="2.88" height="7.9"/><rect class="cls-10" x="148.41" y="291.88" width="2.88" height="7.9"/><rect class="cls-10" x="153.85" y="291.88" width="2.88" height="7.9"/><rect class="cls-10" x="159.29" y="291.88" width="2.88" height="7.9"/><rect class="cls-10" x="164.74" y="291.88" width="2.88" height="7.9"/><rect class="cls-10" x="170.18" y="291.88" width="2.88" height="7.9"/><rect class="cls-10" x="175.62" y="291.88" width="2.88" height="7.9"/><rect class="cls-10" x="126.65" y="301.63" width="2.88" height="7.9"/><rect class="cls-10" x="132.09" y="301.63" width="2.88" height="7.9"/><rect class="cls-10" x="137.53" y="301.63" width="2.88" height="7.9"/><rect class="cls-10" x="142.97" y="301.63" width="2.88" height="7.9"/><rect class="cls-10" x="148.41" y="301.63" width="2.88" height="7.9"/><rect class="cls-10" x="153.85" y="301.63" width="2.88" height="7.9"/><rect class="cls-10" x="159.29" y="301.63" width="2.88" height="7.9"/><rect class="cls-10" x="164.74" y="301.63" width="2.88" height="7.9"/><rect class="cls-10" x="170.18" y="301.63" width="2.88" height="7.9"/><rect class="cls-10" x="175.62" y="301.63" width="2.88" height="7.9"/><rect class="cls-10" x="126.65" y="311.38" width="2.88" height="7.9"/><rect class="cls-10" x="132.09" y="311.38" width="2.88" height="7.9"/><rect class="cls-10" x="137.53" y="311.38" width="2.88" height="7.9"/><rect class="cls-10" x="142.97" y="311.38" width="2.88" height="7.9"/><rect class="cls-10" x="148.41" y="311.38" width="2.88" height="7.9"/><rect class="cls-10" x="153.85" y="311.38" width="2.88" height="7.9"/><rect class="cls-10" x="159.29" y="311.38" width="2.88" height="7.9"/><rect class="cls-10" x="164.74" y="311.38" width="2.88" height="7.9"/><rect class="cls-10" x="170.18" y="311.38" width="2.88" height="7.9"/><rect class="cls-10" x="175.62" y="311.38" width="2.88" height="7.9"/><rect class="cls-10" x="126.65" y="321.13" width="2.88" height="7.9"/><rect class="cls-10" x="132.09" y="321.13" width="2.88" height="7.9"/><rect class="cls-10" x="137.53" y="321.13" width="2.88" height="7.9"/><rect class="cls-10" x="142.97" y="321.13" width="2.88" height="7.9"/><rect class="cls-10" x="148.41" y="321.13" width="2.88" height="7.9"/><rect class="cls-10" x="153.85" y="321.13" width="2.88" height="7.9"/><rect class="cls-10" x="159.29" y="321.13" width="2.88" height="7.9"/><rect class="cls-10" x="164.74" y="321.13" width="2.88" height="7.9"/><rect class="cls-10" x="170.18" y="321.13" width="2.88" height="7.9"/><rect class="cls-10" x="175.62" y="321.13" width="2.88" height="7.9"/><rect class="cls-10" x="126.65" y="330.88" width="2.88" height="7.9"/><rect class="cls-10" x="132.09" y="330.88" width="2.88" height="7.9"/><rect class="cls-10" x="137.53" y="330.88" width="2.88" height="7.9"/><rect class="cls-10" x="142.97" y="330.88" width="2.88" height="7.9"/><rect class="cls-10" x="148.41" y="330.88" width="2.88" height="7.9"/><rect class="cls-10" x="153.85" y="330.88" width="2.88" height="7.9"/><rect class="cls-10" x="159.29" y="330.88" width="2.88" height="7.9"/><rect class="cls-10" x="164.74" y="330.88" width="2.88" height="7.9"/><rect class="cls-10" x="170.18" y="330.88" width="2.88" height="7.9"/><rect class="cls-10" x="175.62" y="330.88" width="2.88" height="7.9"/><rect class="cls-10" x="126.65" y="340.63" width="2.88" height="7.9"/><rect class="cls-10" x="132.09" y="340.63" width="2.88" height="7.9"/><rect class="cls-10" x="137.53" y="340.63" width="2.88" height="7.9"/><rect class="cls-10" x="142.97" y="340.63" width="2.88" height="7.9"/><rect class="cls-10" x="148.41" y="340.63" width="2.88" height="7.9"/><rect class="cls-10" x="153.85" y="340.63" width="2.88" height="7.9"/><rect class="cls-10" x="159.29" y="340.63" width="2.88" height="7.9"/><rect class="cls-10" x="164.74" y="340.63" width="2.88" height="7.9"/><rect class="cls-10" x="170.18" y="340.63" width="2.88" height="7.9"/><rect class="cls-10" x="175.62" y="340.63" width="2.88" height="7.9"/><rect class="cls-10" x="126.65" y="350.38" width="2.88" height="7.9"/><rect class="cls-10" x="132.09" y="350.38" width="2.88" height="7.9"/><rect class="cls-10" x="137.53" y="350.38" width="2.88" height="7.9"/><rect class="cls-10" x="142.97" y="350.38" width="2.88" height="7.9"/><rect class="cls-10" x="148.41" y="350.38" width="2.88" height="7.9"/><rect class="cls-10" x="153.85" y="350.38" width="2.88" height="7.9"/><rect class="cls-10" x="159.29" y="350.38" width="2.88" height="7.9"/><rect class="cls-10" x="164.74" y="350.38" width="2.88" height="7.9"/><rect class="cls-10" x="170.18" y="350.38" width="2.88" height="7.9"/><rect class="cls-10" x="175.62" y="350.38" width="2.88" height="7.9"/><rect class="cls-10" x="126.65" y="360.13" width="2.88" height="7.9"/><rect class="cls-10" x="132.09" y="360.13" width="2.88" height="7.9"/><rect class="cls-10" x="137.53" y="360.13" width="2.88" height="7.9"/><rect class="cls-10" x="142.97" y="360.13" width="2.88" height="7.9"/><rect class="cls-10" x="148.41" y="360.13" width="2.88" height="7.9"/><rect class="cls-10" x="153.85" y="360.13" width="2.88" height="7.9"/><rect class="cls-10" x="159.29" y="360.13" width="2.88" height="7.9"/><rect class="cls-10" x="164.74" y="360.13" width="2.88" height="7.9"/><rect class="cls-10" x="170.18" y="360.13" width="2.88" height="7.9"/><rect class="cls-10" x="175.62" y="360.13" width="2.88" height="7.9"/><rect class="cls-10" x="126.65" y="369.88" width="2.88" height="7.9"/><rect class="cls-10" x="132.09" y="369.88" width="2.88" height="7.9"/><rect class="cls-10" x="137.53" y="369.88" width="2.88" height="7.9"/><rect class="cls-10" x="142.97" y="369.88" width="2.88" height="7.9"/><rect class="cls-10" x="148.41" y="369.88" width="2.88" height="7.9"/><rect class="cls-10" x="153.85" y="369.88" width="2.88" height="7.9"/><rect class="cls-10" x="159.29" y="369.88" width="2.88" height="7.9"/><rect class="cls-10" x="164.74" y="369.88" width="2.88" height="7.9"/><rect class="cls-10" x="170.18" y="369.88" width="2.88" height="7.9"/><rect class="cls-10" x="175.62" y="369.88" width="2.88" height="7.9"/><rect class="cls-10" x="126.65" y="379.63" width="2.88" height="7.9"/><rect class="cls-10" x="132.09" y="379.63" width="2.88" height="7.9"/><rect class="cls-10" x="137.53" y="379.63" width="2.88" height="7.9"/><rect class="cls-10" x="142.97" y="379.63" width="2.88" height="7.9"/><rect class="cls-10" x="148.41" y="379.63" width="2.88" height="7.9"/><rect class="cls-10" x="153.85" y="379.63" width="2.88" height="7.9"/><rect class="cls-10" x="159.29" y="379.63" width="2.88" height="7.9"/><rect class="cls-10" x="164.74" y="379.63" width="2.88" height="7.9"/><rect class="cls-10" x="170.18" y="379.63" width="2.88" height="7.9"/><rect class="cls-10" x="175.62" y="379.63" width="2.88" height="7.9"/><rect class="cls-10" x="126.65" y="389.38" width="2.88" height="7.9"/><rect class="cls-10" x="132.09" y="389.38" width="2.88" height="7.9"/><rect class="cls-10" x="137.53" y="389.38" width="2.88" height="7.9"/><rect class="cls-10" x="142.97" y="389.38" width="2.88" height="7.9"/><rect class="cls-10" x="148.41" y="389.38" width="2.88" height="7.9"/><rect class="cls-10" x="153.85" y="389.38" width="2.88" height="7.9"/><rect class="cls-10" x="159.29" y="389.38" width="2.88" height="7.9"/><rect class="cls-10" x="164.74" y="389.38" width="2.88" height="7.9"/><rect class="cls-10" x="170.18" y="389.38" width="2.88" height="7.9"/><rect class="cls-10" x="175.62" y="389.38" width="2.88" height="7.9"/><rect class="cls-10" x="126.65" y="399.13" width="2.88" height="7.9"/><rect class="cls-10" x="132.09" y="399.13" width="2.88" height="7.9"/><rect class="cls-10" x="137.53" y="399.13" width="2.88" height="7.9"/><rect class="cls-10" x="142.97" y="399.13" width="2.88" height="7.9"/><rect class="cls-10" x="148.41" y="399.13" width="2.88" height="7.9"/><rect class="cls-10" x="153.85" y="399.13" width="2.88" height="7.9"/><rect class="cls-10" x="159.29" y="399.13" width="2.88" height="7.9"/><rect class="cls-10" x="164.74" y="399.13" width="2.88" height="7.9"/><rect class="cls-10" x="170.18" y="399.13" width="2.88" height="7.9"/><rect class="cls-10" x="175.62" y="399.13" width="2.88" height="7.9"/><rect class="cls-10" x="126.65" y="408.88" width="2.88" height="7.9"/><rect class="cls-10" x="132.09" y="408.88" width="2.88" height="7.9"/><rect class="cls-10" x="137.53" y="408.88" width="2.88" height="7.9"/><rect class="cls-10" x="142.97" y="408.88" width="2.88" height="7.9"/><rect class="cls-10" x="148.41" y="408.88" width="2.88" height="7.9"/><rect class="cls-10" x="153.85" y="408.88" width="2.88" height="7.9"/><rect class="cls-10" x="159.29" y="408.88" width="2.88" height="7.9"/><rect class="cls-10" x="164.74" y="408.88" width="2.88" height="7.9"/><rect class="cls-10" x="170.18" y="408.88" width="2.88" height="7.9"/><rect class="cls-10" x="175.62" y="408.88" width="2.88" height="7.9"/><rect class="cls-10" x="126.65" y="418.63" width="2.88" height="7.9"/><rect class="cls-10" x="132.09" y="418.63" width="2.88" height="7.9"/><rect class="cls-10" x="137.53" y="418.63" width="2.88" height="7.9"/><rect class="cls-10" x="142.97" y="418.63" width="2.88" height="7.9"/><rect class="cls-10" x="148.41" y="418.63" width="2.88" height="7.9"/><rect class="cls-10" x="153.85" y="418.63" width="2.88" height="7.9"/><rect class="cls-10" x="159.29" y="418.63" width="2.88" height="7.9"/><rect class="cls-10" x="164.74" y="418.63" width="2.88" height="7.9"/><rect class="cls-10" x="170.18" y="418.63" width="2.88" height="7.9"/><rect class="cls-10" x="175.62" y="418.63" width="2.88" height="7.9"/><rect class="cls-10" x="126.65" y="428.38" width="2.88" height="7.9"/><rect class="cls-10" x="132.09" y="428.38" width="2.88" height="7.9"/><rect class="cls-10" x="137.53" y="428.38" width="2.88" height="7.9"/><rect class="cls-10" x="142.97" y="428.38" width="2.88" height="7.9"/><rect class="cls-10" x="148.41" y="428.38" width="2.88" height="7.9"/><rect class="cls-10" x="153.85" y="428.38" width="2.88" height="7.9"/><rect class="cls-10" x="159.29" y="428.38" width="2.88" height="7.9"/><rect class="cls-10" x="164.74" y="428.38" width="2.88" height="7.9"/><rect class="cls-10" x="170.18" y="428.38" width="2.88" height="7.9"/><rect class="cls-10" x="175.62" y="428.38" width="2.88" height="7.9"/><rect class="cls-10" x="126.65" y="438.13" width="2.88" height="7.9"/><rect class="cls-10" x="132.09" y="438.13" width="2.88" height="7.9"/><rect class="cls-10" x="137.53" y="438.13" width="2.88" height="7.9"/><rect class="cls-10" x="142.97" y="438.13" width="2.88" height="7.9"/><rect class="cls-10" x="148.41" y="438.13" width="2.88" height="7.9"/><rect class="cls-10" x="153.85" y="438.13" width="2.88" height="7.9"/><rect class="cls-10" x="159.29" y="438.13" width="2.88" height="7.9"/><rect class="cls-10" x="164.74" y="438.13" width="2.88" height="7.9"/><rect class="cls-10" x="170.18" y="438.13" width="2.88" height="7.9"/><rect class="cls-10" x="175.62" y="438.13" width="2.88" height="7.9"/><path class="cls-11" d="M750.41,11.63a62.75,62.75,0,0,0-44.28,4.79c-13.53,6.92-23.72,18.89-27.57,32.39-14.18-2.42-28.87-3.58-43-1s-27.76,9.3-35.76,20c-1.18,1.57-2.3,3.28-4.12,4.24s-4,1-6.14,1c-17,.27-34.21.86-50.61,4.93s-31.86,12.14-41.78,24.51H750.41Z"/><path class="cls-11" d="M750.41,26a62.7,62.7,0,0,0-44.28,4.8c-13.53,6.91-23.72,18.88-27.57,32.39-14.18-2.43-28.87-3.59-43-1s-27.76,9.31-35.76,20.05c-1.18,1.57-2.3,3.28-4.12,4.25s-4,1-6.14,1c-17,.27-34.21.86-50.61,4.93S507.06,104.65,497.14,117H750.41Z"/><rect class="cls-4" x="695.05" y="276.23" width="55.36" height="177.68"/><path class="cls-10" d="M703.15,297.22v12.11h2.75V293.5A3.61,3.61,0,0,0,703.15,297.22Z"/><path class="cls-10" d="M709.53,297.22a3.61,3.61,0,0,0-2.75-3.72v15.83h2.75Z"/><path class="cls-10" d="M714.08,297.22v12.11h2.74V293.5A3.6,3.6,0,0,0,714.08,297.22Z"/><path class="cls-10" d="M720.46,297.22a3.61,3.61,0,0,0-2.75-3.72v15.83h2.75Z"/><path class="cls-10" d="M725,297.22v12.11h2.74V293.5A3.6,3.6,0,0,0,725,297.22Z"/><path class="cls-10" d="M731.38,297.22a3.6,3.6,0,0,0-2.74-3.72v15.83h2.74Z"/><path class="cls-10" d="M735.93,297.22v12.11h2.75V293.5A3.61,3.61,0,0,0,735.93,297.22Z"/><path class="cls-10" d="M742.31,297.22a3.6,3.6,0,0,0-2.74-3.72v15.83h2.74Z"/><path class="cls-10" d="M703.15,323.19V335.3h2.75V319.47A3.61,3.61,0,0,0,703.15,323.19Z"/><path class="cls-10" d="M709.53,323.19a3.61,3.61,0,0,0-2.75-3.72V335.3h2.75Z"/><path class="cls-10" d="M714.08,323.19V335.3h2.74V319.47A3.6,3.6,0,0,0,714.08,323.19Z"/><path class="cls-10" d="M720.46,323.19a3.61,3.61,0,0,0-2.75-3.72V335.3h2.75Z"/><path class="cls-10" d="M725,323.19V335.3h2.74V319.47A3.6,3.6,0,0,0,725,323.19Z"/><path class="cls-10" d="M731.38,323.19a3.6,3.6,0,0,0-2.74-3.72V335.3h2.74Z"/><path class="cls-10" d="M735.93,323.19V335.3h2.75V319.47A3.61,3.61,0,0,0,735.93,323.19Z"/><path class="cls-10" d="M742.31,323.19a3.6,3.6,0,0,0-2.74-3.72V335.3h2.74Z"/><path class="cls-10" d="M703.15,349.15v12.12h2.75V345.44A3.61,3.61,0,0,0,703.15,349.15Z"/><path class="cls-10" d="M709.53,349.15a3.61,3.61,0,0,0-2.75-3.71v15.83h2.75Z"/><path class="cls-10" d="M714.08,349.15v12.12h2.74V345.44A3.6,3.6,0,0,0,714.08,349.15Z"/><path class="cls-10" d="M720.46,349.15a3.61,3.61,0,0,0-2.75-3.71v15.83h2.75Z"/><path class="cls-10" d="M725,349.15v12.12h2.74V345.44A3.6,3.6,0,0,0,725,349.15Z"/><path class="cls-10" d="M731.38,349.15a3.6,3.6,0,0,0-2.74-3.71v15.83h2.74Z"/><path class="cls-10" d="M735.93,349.15v12.12h2.75V345.44A3.61,3.61,0,0,0,735.93,349.15Z"/><path class="cls-10" d="M742.31,349.15a3.6,3.6,0,0,0-2.74-3.71v15.83h2.74Z"/><path class="cls-10" d="M703.15,375.12v12.12h2.75V371.41A3.61,3.61,0,0,0,703.15,375.12Z"/><path class="cls-10" d="M709.53,375.12a3.61,3.61,0,0,0-2.75-3.71v15.83h2.75Z"/><path class="cls-10" d="M714.08,375.12v12.12h2.74V371.41A3.6,3.6,0,0,0,714.08,375.12Z"/><path class="cls-10" d="M720.46,375.12a3.61,3.61,0,0,0-2.75-3.71v15.83h2.75Z"/><path class="cls-10" d="M725,375.12v12.12h2.74V371.41A3.6,3.6,0,0,0,725,375.12Z"/><path class="cls-10" d="M731.38,375.12a3.6,3.6,0,0,0-2.74-3.71v15.83h2.74Z"/><path class="cls-10" d="M735.93,375.12v12.12h2.75V371.41A3.61,3.61,0,0,0,735.93,375.12Z"/><path class="cls-10" d="M742.31,375.12a3.6,3.6,0,0,0-2.74-3.71v15.83h2.74Z"/><path class="cls-10" d="M703.15,401.09v12.12h2.75V397.38A3.61,3.61,0,0,0,703.15,401.09Z"/><path class="cls-10" d="M709.53,401.09a3.61,3.61,0,0,0-2.75-3.71v15.83h2.75Z"/><path class="cls-10" d="M714.08,401.09v12.12h2.74V397.38A3.6,3.6,0,0,0,714.08,401.09Z"/><path class="cls-10" d="M720.46,401.09a3.61,3.61,0,0,0-2.75-3.71v15.83h2.75Z"/><path class="cls-10" d="M725,401.09v12.12h2.74V397.38A3.6,3.6,0,0,0,725,401.09Z"/><path class="cls-10" d="M731.38,401.09a3.6,3.6,0,0,0-2.74-3.71v15.83h2.74Z"/><path class="cls-10" d="M735.93,401.09v12.12h2.75V397.38A3.61,3.61,0,0,0,735.93,401.09Z"/><path class="cls-10" d="M742.31,401.09a3.6,3.6,0,0,0-2.74-3.71v15.83h2.74Z"/><polygon class="cls-12" points="422.42 453.91 414.13 115.03 376.82 109.33 359.2 118.66 348.32 453.91 422.42 453.91"/><polygon class="cls-13" points="376.82 109.33 359.2 118.66 348.32 453.91 376.82 109.33"/><polygon class="cls-14" points="422.42 453.91 414.13 115.03 376.82 109.33 399.62 453.91 422.42 453.91"/><polygon class="cls-15" points="383.3 103.37 385.37 0 386.99 0 388.43 103.37 383.3 103.37"/><rect class="cls-15" x="381.27" y="76.68" width="9.19" height="4.59"/><rect class="cls-15" x="383.04" y="63.31" width="5.85" height="2.92"/><rect class="cls-15" x="383.72" y="52.17" width="4.54" height="2.27"/><rect class="cls-15" x="383.79" y="41.03" width="4.54" height="2.27"/><rect class="cls-15" x="383.79" y="29.89" width="4.54" height="2.27"/><rect class="cls-15" x="383.71" y="18.17" width="4.54" height="2.27"/><path class="cls-16" d="M366.46,114.81v-9.36s16.58-8,38.6,0v8.2l-28.24-4.32Z"/><polygon class="cls-1" points="186.58 280.66 186.58 310.5 181.88 310.5 181.88 453.91 280.52 453.91 280.52 280.66 186.58 280.66"/><g class="cls-17"><path class="cls-18" d="M180,288.12a662.36,662.36,0,0,1,103.89,0"/><path class="cls-18" d="M180,294.82a662.36,662.36,0,0,1,103.89,0"/><path class="cls-18" d="M180,301.52a662.36,662.36,0,0,1,103.89,0"/><path class="cls-18" d="M180,308.22a662.36,662.36,0,0,1,103.89,0"/><path class="cls-18" d="M180,314.93a660,660,0,0,1,103.89,0"/><path class="cls-18" d="M180,321.63a660,660,0,0,1,103.89,0"/><path class="cls-18" d="M180,328.33a660,660,0,0,1,103.89,0"/><path class="cls-18" d="M180,335a662.36,662.36,0,0,1,103.89,0"/><path class="cls-18" d="M180,341.73a662.36,662.36,0,0,1,103.89,0"/><path class="cls-18" d="M180,348.43a662.36,662.36,0,0,1,103.89,0"/><path class="cls-18" d="M180,355.13a662.36,662.36,0,0,1,103.89,0"/><path class="cls-18" d="M180,361.83a662.36,662.36,0,0,1,103.89,0"/><path class="cls-18" d="M180,368.53a662.36,662.36,0,0,1,103.89,0"/><path class="cls-18" d="M180,375.23a662.36,662.36,0,0,1,103.89,0"/><path class="cls-18" d="M180,381.93a662.36,662.36,0,0,1,103.89,0"/><path class="cls-18" d="M180,388.63a662.36,662.36,0,0,1,103.89,0"/><path class="cls-18" d="M180,395.33a662.36,662.36,0,0,1,103.89,0"/><path class="cls-18" d="M180,402a662.36,662.36,0,0,1,103.89,0"/><path class="cls-18" d="M180,408.73a662.36,662.36,0,0,1,103.89,0"/><path class="cls-18" d="M180,415.43a662.36,662.36,0,0,1,103.89,0"/><path class="cls-18" d="M180,422.13a662.36,662.36,0,0,1,103.89,0"/><path class="cls-18" d="M180,428.83a662.36,662.36,0,0,1,103.89,0"/><path class="cls-18" d="M180,435.53a662.36,662.36,0,0,1,103.89,0"/><path class="cls-18" d="M180,442.23a662.36,662.36,0,0,1,103.89,0"/><path class="cls-18" d="M180,448.93a662.36,662.36,0,0,1,103.89,0"/><g class="cls-19"><g class="cls-19"><line class="cls-20" x1="197.89" y1="282.36" x2="197.89" y2="441.58"/></g><g class="cls-19"><line class="cls-20" x1="205.79" y1="282.36" x2="205.79" y2="441.58"/></g><g class="cls-19"><line class="cls-20" x1="213.68" y1="282.36" x2="213.68" y2="441.58"/></g><g class="cls-19"><line class="cls-20" x1="221.58" y1="282.36" x2="221.58" y2="441.58"/></g><g class="cls-19"><line class="cls-20" x1="229.48" y1="282.36" x2="229.48" y2="441.58"/></g><g class="cls-19"><line class="cls-20" x1="237.38" y1="282.36" x2="237.38" y2="441.58"/></g><g class="cls-19"><line class="cls-20" x1="245.28" y1="282.36" x2="245.28" y2="441.58"/></g><g class="cls-19"><line class="cls-20" x1="253.18" y1="282.36" x2="253.18" y2="441.58"/></g><g class="cls-19"><line class="cls-20" x1="261.08" y1="282.36" x2="261.08" y2="441.58"/></g><g class="cls-19"><line class="cls-20" x1="268.98" y1="282.36" x2="268.98" y2="441.58"/></g></g></g><path class="cls-10" d="M278.43,282.76V451.81H184V312.6h4.69V282.76h89.76m2.09-2.1H186.58V310.5h-4.7V453.91h98.64V280.66Z"/><rect class="cls-21" x="38.53" y="386.53" width="164.73" height="67.38"/><rect class="cls-22" x="44.4" y="381.51" width="151.54" height="5.03"/><rect class="cls-22" x="175.05" y="376.13" width="20.89" height="10.4"/><rect class="cls-23" x="187.15" y="379.19" width="5.86" height="7.34"/><rect class="cls-24" x="38.53" y="417.23" width="164.73" height="5.18"/><rect class="cls-10" x="44.4" y="392.37" width="2.93" height="4.64"/><rect class="cls-10" x="49.04" y="392.37" width="2.93" height="4.64"/><rect class="cls-10" x="53.69" y="392.37" width="2.93" height="4.64"/><rect class="cls-10" x="58.33" y="392.37" width="2.93" height="4.64"/><rect class="cls-10" x="62.97" y="392.37" width="2.93" height="4.64"/><rect class="cls-10" x="67.62" y="392.37" width="2.93" height="4.64"/><rect class="cls-10" x="72.26" y="392.37" width="2.93" height="4.64"/><rect class="cls-10" x="76.91" y="392.37" width="2.93" height="4.64"/><rect class="cls-10" x="81.55" y="392.37" width="2.93" height="4.64"/><rect class="cls-10" x="86.19" y="392.37" width="2.93" height="4.64"/><rect class="cls-10" x="90.84" y="392.37" width="2.93" height="4.64"/><rect class="cls-10" x="95.48" y="392.37" width="2.93" height="4.64"/><rect class="cls-10" x="100.13" y="392.37" width="2.93" height="4.64"/><rect class="cls-10" x="104.77" y="392.37" width="2.93" height="4.64"/><rect class="cls-10" x="109.41" y="392.37" width="2.93" height="4.64"/><rect class="cls-10" x="114.06" y="392.37" width="2.93" height="4.64"/><rect class="cls-10" x="118.7" y="392.37" width="2.93" height="4.64"/><rect class="cls-10" x="123.35" y="392.37" width="2.93" height="4.64"/><rect class="cls-10" x="127.99" y="392.37" width="2.93" height="4.64"/><rect class="cls-10" x="132.63" y="392.37" width="2.93" height="4.64"/><rect class="cls-10" x="137.28" y="392.37" width="2.93" height="4.64"/><rect class="cls-10" x="141.92" y="392.37" width="2.93" height="4.64"/><rect class="cls-10" x="146.57" y="392.37" width="2.93" height="4.64"/><rect class="cls-10" x="151.21" y="392.37" width="2.93" height="4.64"/><rect class="cls-10" x="155.85" y="392.37" width="2.93" height="4.64"/><rect class="cls-10" x="160.5" y="392.37" width="2.93" height="4.64"/><rect class="cls-10" x="165.14" y="392.37" width="2.93" height="4.64"/><rect class="cls-10" x="169.79" y="392.37" width="2.93" height="4.64"/><rect class="cls-10" x="174.43" y="392.37" width="2.93" height="4.64"/><rect class="cls-10" x="179.07" y="392.37" width="2.93" height="4.64"/><rect class="cls-10" x="183.72" y="392.37" width="2.93" height="4.64"/><rect class="cls-10" x="188.36" y="392.37" width="2.93" height="4.64"/><rect class="cls-10" x="193.01" y="392.37" width="2.93" height="4.64"/><rect class="cls-10" x="44.4" y="400.75" width="2.93" height="4.64"/><rect class="cls-10" x="49.04" y="400.75" width="2.93" height="4.64"/><rect class="cls-10" x="53.69" y="400.75" width="2.93" height="4.64"/><rect class="cls-10" x="58.33" y="400.75" width="2.93" height="4.64"/><rect class="cls-10" x="62.97" y="400.75" width="2.93" height="4.64"/><rect class="cls-10" x="67.62" y="400.75" width="2.93" height="4.64"/><rect class="cls-10" x="72.26" y="400.75" width="2.93" height="4.64"/><rect class="cls-10" x="76.91" y="400.75" width="2.93" height="4.64"/><rect class="cls-10" x="81.55" y="400.75" width="2.93" height="4.64"/><rect class="cls-10" x="86.19" y="400.75" width="2.93" height="4.64"/><rect class="cls-10" x="90.84" y="400.75" width="2.93" height="4.64"/><rect class="cls-10" x="95.48" y="400.75" width="2.93" height="4.64"/><rect class="cls-10" x="100.13" y="400.75" width="2.93" height="4.64"/><rect class="cls-10" x="104.77" y="400.75" width="2.93" height="4.64"/><rect class="cls-10" x="109.41" y="400.75" width="2.93" height="4.64"/><rect class="cls-10" x="114.06" y="400.75" width="2.93" height="4.64"/><rect class="cls-10" x="118.7" y="400.75" width="2.93" height="4.64"/><rect class="cls-10" x="123.35" y="400.75" width="2.93" height="4.64"/><rect class="cls-10" x="127.99" y="400.75" width="2.93" height="4.64"/><rect class="cls-10" x="132.63" y="400.75" width="2.93" height="4.64"/><rect class="cls-10" x="137.28" y="400.75" width="2.93" height="4.64"/><rect class="cls-10" x="141.92" y="400.75" width="2.93" height="4.64"/><rect class="cls-10" x="146.57" y="400.75" width="2.93" height="4.64"/><rect class="cls-10" x="151.21" y="400.75" width="2.93" height="4.64"/><rect class="cls-10" x="155.85" y="400.75" width="2.93" height="4.64"/><rect class="cls-10" x="160.5" y="400.75" width="2.93" height="4.64"/><rect class="cls-10" x="165.14" y="400.75" width="2.93" height="4.64"/><rect class="cls-10" x="169.79" y="400.75" width="2.93" height="4.64"/><rect class="cls-10" x="174.43" y="400.75" width="2.93" height="4.64"/><rect class="cls-10" x="179.07" y="400.75" width="2.93" height="4.64"/><rect class="cls-10" x="183.72" y="400.75" width="2.93" height="4.64"/><rect class="cls-10" x="188.36" y="400.75" width="2.93" height="4.64"/><rect class="cls-10" x="193.01" y="400.75" width="2.93" height="4.64"/><rect class="cls-10" x="44.4" y="409.13" width="2.93" height="4.64"/><rect class="cls-10" x="49.04" y="409.13" width="2.93" height="4.64"/><rect class="cls-10" x="53.69" y="409.13" width="2.93" height="4.64"/><rect class="cls-10" x="58.33" y="409.13" width="2.93" height="4.64"/><rect class="cls-10" x="62.97" y="409.13" width="2.93" height="4.64"/><rect class="cls-10" x="67.62" y="409.13" width="2.93" height="4.64"/><rect class="cls-10" x="72.26" y="409.13" width="2.93" height="4.64"/><rect class="cls-10" x="76.91" y="409.13" width="2.93" height="4.64"/><rect class="cls-10" x="81.55" y="409.13" width="2.93" height="4.64"/><rect class="cls-10" x="86.19" y="409.13" width="2.93" height="4.64"/><rect class="cls-10" x="90.84" y="409.13" width="2.93" height="4.64"/><rect class="cls-10" x="95.48" y="409.13" width="2.93" height="4.64"/><rect class="cls-10" x="100.13" y="409.13" width="2.93" height="4.64"/><rect class="cls-10" x="104.77" y="409.13" width="2.93" height="4.64"/><rect class="cls-10" x="109.41" y="409.13" width="2.93" height="4.64"/><rect class="cls-10" x="114.06" y="409.13" width="2.93" height="4.64"/><rect class="cls-10" x="118.7" y="409.13" width="2.93" height="4.64"/><rect class="cls-10" x="123.35" y="409.13" width="2.93" height="4.64"/><rect class="cls-10" x="127.99" y="409.13" width="2.93" height="4.64"/><rect class="cls-10" x="132.63" y="409.13" width="2.93" height="4.64"/><rect class="cls-10" x="137.28" y="409.13" width="2.93" height="4.64"/><rect class="cls-10" x="141.92" y="409.13" width="2.93" height="4.64"/><rect class="cls-10" x="146.57" y="409.13" width="2.93" height="4.64"/><rect class="cls-10" x="151.21" y="409.13" width="2.93" height="4.64"/><rect class="cls-10" x="155.85" y="409.13" width="2.93" height="4.64"/><rect class="cls-10" x="160.5" y="409.13" width="2.93" height="4.64"/><rect class="cls-10" x="165.14" y="409.13" width="2.93" height="4.64"/><rect class="cls-10" x="169.79" y="409.13" width="2.93" height="4.64"/><rect class="cls-10" x="174.43" y="409.13" width="2.93" height="4.64"/><rect class="cls-10" x="179.07" y="409.13" width="2.93" height="4.64"/><rect class="cls-10" x="183.72" y="409.13" width="2.93" height="4.64"/><rect class="cls-10" x="188.36" y="409.13" width="2.93" height="4.64"/><rect class="cls-10" x="193.01" y="409.13" width="2.93" height="4.64"/><rect class="cls-10" x="44.4" y="425.89" width="2.93" height="4.64"/><rect class="cls-10" x="49.04" y="425.89" width="2.93" height="4.64"/><rect class="cls-10" x="53.69" y="425.89" width="2.93" height="4.64"/><rect class="cls-10" x="58.33" y="425.89" width="2.93" height="4.64"/><rect class="cls-10" x="62.97" y="425.89" width="2.93" height="4.64"/><rect class="cls-10" x="67.62" y="425.89" width="2.93" height="4.64"/><rect class="cls-10" x="72.26" y="425.89" width="2.93" height="4.64"/><rect class="cls-10" x="76.91" y="425.89" width="2.93" height="4.64"/><rect class="cls-10" x="81.55" y="425.89" width="2.93" height="4.64"/><rect class="cls-10" x="86.19" y="425.89" width="2.93" height="4.64"/><rect class="cls-10" x="90.84" y="425.89" width="2.93" height="4.64"/><rect class="cls-10" x="95.48" y="425.89" width="2.93" height="4.64"/><rect class="cls-10" x="100.13" y="425.89" width="2.93" height="4.64"/><rect class="cls-10" x="104.77" y="425.89" width="2.93" height="4.64"/><rect class="cls-10" x="109.41" y="425.89" width="2.93" height="4.64"/><rect class="cls-10" x="114.06" y="425.89" width="2.93" height="4.64"/><rect class="cls-10" x="118.7" y="425.89" width="2.93" height="4.64"/><rect class="cls-10" x="123.35" y="425.89" width="2.93" height="4.64"/><rect class="cls-10" x="127.99" y="425.89" width="2.93" height="4.64"/><rect class="cls-10" x="132.63" y="425.89" width="2.93" height="4.64"/><rect class="cls-10" x="137.28" y="425.89" width="2.93" height="4.64"/><rect class="cls-10" x="141.92" y="425.89" width="2.93" height="4.64"/><rect class="cls-10" x="146.57" y="425.89" width="2.93" height="4.64"/><rect class="cls-10" x="151.21" y="425.89" width="2.93" height="4.64"/><rect class="cls-10" x="155.85" y="425.89" width="2.93" height="4.64"/><rect class="cls-10" x="160.5" y="425.89" width="2.93" height="4.64"/><rect class="cls-10" x="165.14" y="425.89" width="2.93" height="4.64"/><rect class="cls-10" x="169.79" y="425.89" width="2.93" height="4.64"/><rect class="cls-10" x="174.43" y="425.89" width="2.93" height="4.64"/><rect class="cls-10" x="179.07" y="425.89" width="2.93" height="4.64"/><rect class="cls-10" x="183.72" y="425.89" width="2.93" height="4.64"/><rect class="cls-10" x="188.36" y="425.89" width="2.93" height="4.64"/><rect class="cls-10" x="193.01" y="425.89" width="2.93" height="4.64"/><rect class="cls-10" x="44.4" y="434.27" width="2.93" height="4.64"/><rect class="cls-10" x="49.04" y="434.27" width="2.93" height="4.64"/><rect class="cls-10" x="53.69" y="434.27" width="2.93" height="4.64"/><rect class="cls-10" x="58.33" y="434.27" width="2.93" height="4.64"/><rect class="cls-10" x="62.97" y="434.27" width="2.93" height="4.64"/><rect class="cls-10" x="67.62" y="434.27" width="2.93" height="4.64"/><rect class="cls-10" x="72.26" y="434.27" width="2.93" height="4.64"/><rect class="cls-10" x="76.91" y="434.27" width="2.93" height="4.64"/><rect class="cls-10" x="81.55" y="434.27" width="2.93" height="4.64"/><rect class="cls-10" x="86.19" y="434.27" width="2.93" height="4.64"/><rect class="cls-10" x="90.84" y="434.27" width="2.93" height="4.64"/><rect class="cls-10" x="95.48" y="434.27" width="2.93" height="4.64"/><rect class="cls-10" x="100.13" y="434.27" width="2.93" height="4.64"/><rect class="cls-10" x="104.77" y="434.27" width="2.93" height="4.64"/><rect class="cls-10" x="109.41" y="434.27" width="2.93" height="4.64"/><rect class="cls-10" x="114.06" y="434.27" width="2.93" height="4.64"/><rect class="cls-10" x="118.7" y="434.27" width="2.93" height="4.64"/><rect class="cls-10" x="123.35" y="434.27" width="2.93" height="4.64"/><rect class="cls-10" x="127.99" y="434.27" width="2.93" height="4.64"/><rect class="cls-10" x="132.63" y="434.27" width="2.93" height="4.64"/><rect class="cls-10" x="137.28" y="434.27" width="2.93" height="4.64"/><rect class="cls-10" x="141.92" y="434.27" width="2.93" height="4.64"/><rect class="cls-10" x="146.57" y="434.27" width="2.93" height="4.64"/><rect class="cls-10" x="151.21" y="434.27" width="2.93" height="4.64"/><rect class="cls-10" x="155.85" y="434.27" width="2.93" height="4.64"/><rect class="cls-10" x="160.5" y="434.27" width="2.93" height="4.64"/><rect class="cls-10" x="165.14" y="434.27" width="2.93" height="4.64"/><rect class="cls-10" x="169.79" y="434.27" width="2.93" height="4.64"/><rect class="cls-10" x="174.43" y="434.27" width="2.93" height="4.64"/><rect class="cls-10" x="179.07" y="434.27" width="2.93" height="4.64"/><rect class="cls-10" x="183.72" y="434.27" width="2.93" height="4.64"/><rect class="cls-10" x="188.36" y="434.27" width="2.93" height="4.64"/><rect class="cls-10" x="193.01" y="434.27" width="2.93" height="4.64"/><rect class="cls-10" x="44.4" y="442.65" width="2.93" height="4.64"/><rect class="cls-10" x="49.04" y="442.65" width="2.93" height="4.64"/><rect class="cls-10" x="53.69" y="442.65" width="2.93" height="4.64"/><rect class="cls-10" x="58.33" y="442.65" width="2.93" height="4.64"/><rect class="cls-10" x="62.97" y="442.65" width="2.93" height="4.64"/><rect class="cls-10" x="67.62" y="442.65" width="2.93" height="4.64"/><rect class="cls-10" x="72.26" y="442.65" width="2.93" height="4.64"/><rect class="cls-10" x="76.91" y="442.65" width="2.93" height="4.64"/><rect class="cls-10" x="81.55" y="442.65" width="2.93" height="4.64"/><rect class="cls-10" x="86.19" y="442.65" width="2.93" height="4.64"/><rect class="cls-10" x="90.84" y="442.65" width="2.93" height="4.64"/><rect class="cls-10" x="95.48" y="442.65" width="2.93" height="4.64"/><rect class="cls-10" x="100.13" y="442.65" width="2.93" height="4.64"/><rect class="cls-10" x="104.77" y="442.65" width="2.93" height="4.64"/><rect class="cls-10" x="109.41" y="442.65" width="2.93" height="4.64"/><rect class="cls-10" x="114.06" y="442.65" width="2.93" height="4.64"/><rect class="cls-10" x="118.7" y="442.65" width="2.93" height="4.64"/><rect class="cls-10" x="123.35" y="442.65" width="2.93" height="4.64"/><rect class="cls-10" x="127.99" y="442.65" width="2.93" height="4.64"/><rect class="cls-10" x="132.63" y="442.65" width="2.93" height="4.64"/><rect class="cls-10" x="137.28" y="442.65" width="2.93" height="4.64"/><rect class="cls-10" x="141.92" y="442.65" width="2.93" height="4.64"/><rect class="cls-10" x="146.57" y="442.65" width="2.93" height="4.64"/><rect class="cls-10" x="151.21" y="442.65" width="2.93" height="4.64"/><rect class="cls-10" x="155.85" y="442.65" width="2.93" height="4.64"/><rect class="cls-10" x="160.5" y="442.65" width="2.93" height="4.64"/><rect class="cls-10" x="165.14" y="442.65" width="2.93" height="4.64"/><rect class="cls-10" x="169.79" y="442.65" width="2.93" height="4.64"/><rect class="cls-10" x="174.43" y="442.65" width="2.93" height="4.64"/><rect class="cls-10" x="179.07" y="442.65" width="2.93" height="4.64"/><rect class="cls-10" x="183.72" y="442.65" width="2.93" height="4.64"/><rect class="cls-10" x="188.36" y="442.65" width="2.93" height="4.64"/><rect class="cls-10" x="193.01" y="442.65" width="2.93" height="4.64"/><rect class="cls-4" x="482.44" y="306.4" width="67.53" height="147.5"/><rect class="cls-12" x="482.44" y="306.4" width="67.53" height="2.75"/><rect class="cls-12" x="482.44" y="330.76" width="67.53" height="1.37"/><rect class="cls-12" x="482.44" y="352.39" width="67.53" height="1.37"/><rect class="cls-12" x="482.44" y="374.03" width="67.53" height="1.37"/><rect class="cls-12" x="482.44" y="395.66" width="67.53" height="1.37"/><rect class="cls-12" x="482.44" y="417.3" width="67.53" height="1.37"/><rect class="cls-12" x="482.44" y="438.93" width="67.53" height="1.37"/><rect class="cls-12" x="482.44" y="306.4" width="3.04" height="147.5"/><rect class="cls-12" x="493.19" y="306.4" width="3.04" height="147.5"/><rect class="cls-12" x="503.94" y="306.4" width="3.04" height="147.5"/><rect class="cls-12" x="514.69" y="306.4" width="3.04" height="147.5"/><rect class="cls-12" x="525.44" y="306.4" width="3.04" height="147.5"/><rect class="cls-12" x="536.18" y="306.4" width="3.04" height="147.5"/><rect class="cls-12" x="546.93" y="306.4" width="3.04" height="147.5"/><rect class="cls-8" x="566.44" y="188.94" width="43.98" height="264.97"/><rect class="cls-1" x="569" y="192.62" width="8.66" height="18.72"/><rect class="cls-1" x="578.92" y="192.62" width="8.66" height="18.72"/><rect class="cls-1" x="588.83" y="192.62" width="8.66" height="18.72"/><rect class="cls-1" x="598.75" y="192.62" width="8.66" height="18.72"/><rect class="cls-1" x="569" y="213.35" width="8.66" height="18.72"/><rect class="cls-1" x="578.92" y="213.35" width="8.66" height="18.72"/><rect class="cls-1" x="588.83" y="213.35" width="8.66" height="18.72"/><rect class="cls-1" x="598.75" y="213.35" width="8.66" height="18.72"/><rect class="cls-1" x="569" y="234.07" width="8.66" height="18.72"/><rect class="cls-1" x="578.92" y="234.07" width="8.66" height="18.72"/><rect class="cls-1" x="588.83" y="234.07" width="8.66" height="18.72"/><rect class="cls-1" x="598.75" y="234.07" width="8.66" height="18.72"/><rect class="cls-1" x="569" y="254.8" width="8.66" height="18.72"/><rect class="cls-1" x="578.92" y="254.8" width="8.66" height="18.72"/><rect class="cls-1" x="588.83" y="254.8" width="8.66" height="18.72"/><rect class="cls-1" x="598.75" y="254.8" width="8.66" height="18.72"/><rect class="cls-1" x="569" y="275.62" width="8.66" height="18.72"/><rect class="cls-1" x="578.92" y="275.62" width="8.66" height="18.72"/><rect class="cls-1" x="588.83" y="275.62" width="8.66" height="18.72"/><rect class="cls-1" x="598.75" y="275.62" width="8.66" height="18.72"/><rect class="cls-1" x="569" y="296.35" width="8.66" height="18.72"/><rect class="cls-1" x="578.92" y="296.35" width="8.66" height="18.72"/><rect class="cls-1" x="588.83" y="296.35" width="8.66" height="18.72"/><rect class="cls-1" x="598.75" y="296.35" width="8.66" height="18.72"/><rect class="cls-1" x="569" y="317.07" width="8.66" height="18.72"/><rect class="cls-1" x="578.92" y="317.07" width="8.66" height="18.72"/><rect class="cls-1" x="588.83" y="317.07" width="8.66" height="18.72"/><rect class="cls-1" x="598.75" y="317.07" width="8.66" height="18.72"/><rect class="cls-1" x="569" y="337.8" width="8.66" height="18.72"/><rect class="cls-1" x="578.92" y="337.8" width="8.66" height="18.72"/><rect class="cls-1" x="588.83" y="337.8" width="8.66" height="18.72"/><rect class="cls-1" x="598.75" y="337.8" width="8.66" height="18.72"/><rect class="cls-1" x="569" y="358.62" width="8.66" height="18.72"/><rect class="cls-1" x="578.92" y="358.62" width="8.66" height="18.72"/><rect class="cls-1" x="588.83" y="358.62" width="8.66" height="18.72"/><rect class="cls-1" x="598.75" y="358.62" width="8.66" height="18.72"/><rect class="cls-1" x="569" y="379.35" width="8.66" height="18.72"/><rect class="cls-1" x="578.92" y="379.35" width="8.66" height="18.72"/><rect class="cls-1" x="588.83" y="379.35" width="8.66" height="18.72"/><rect class="cls-1" x="598.75" y="379.35" width="8.66" height="18.72"/><rect class="cls-1" x="569" y="400.07" width="8.66" height="18.72"/><rect class="cls-1" x="578.92" y="400.07" width="8.66" height="18.72"/><rect class="cls-1" x="588.83" y="400.07" width="8.66" height="18.72"/><rect class="cls-1" x="598.75" y="400.07" width="8.66" height="18.72"/><rect class="cls-1" x="569" y="420.8" width="8.66" height="18.72"/><rect class="cls-1" x="578.92" y="420.8" width="8.66" height="18.72"/><rect class="cls-1" x="588.83" y="420.8" width="8.66" height="18.72"/><rect class="cls-1" x="598.75" y="420.8" width="8.66" height="18.72"/><polygon class="cls-4" points="610.42 188.94 622.16 200.6 622.16 453.91 610.42 453.91 610.42 188.94"/><rect class="cls-8" x="625.84" y="296.17" width="49.35" height="13"/><rect class="cls-7" x="623.87" y="302.84" width="53.53" height="6.33"/><rect class="cls-1" x="622.16" y="309.17" width="56.71" height="144.74"/><rect class="cls-10" x="622.16" y="449.79" width="56.71" height="4.11"/><rect class="cls-10" x="622.16" y="309.19" width="56.71" height="4.11"/><rect class="cls-7" x="623.31" y="292.05" width="54.42" height="4.11"/><rect class="cls-10" x="622.16" y="441.42" width="56.71" height="2.06"/><rect class="cls-10" x="622.16" y="431.32" width="56.71" height="2.06"/><rect class="cls-10" x="622.16" y="421.22" width="56.71" height="2.06"/><rect class="cls-10" x="622.16" y="411.12" width="56.71" height="2.06"/><rect class="cls-10" x="622.16" y="401.02" width="56.71" height="2.06"/><rect class="cls-10" x="622.16" y="390.92" width="56.71" height="2.06"/><rect class="cls-10" x="622.16" y="380.82" width="56.71" height="2.06"/><rect class="cls-10" x="622.16" y="370.72" width="56.71" height="2.06"/><rect class="cls-10" x="622.16" y="360.61" width="56.71" height="2.06"/><rect class="cls-10" x="622.16" y="350.51" width="56.71" height="2.06"/><rect class="cls-10" x="622.16" y="340.41" width="56.71" height="2.06"/><rect class="cls-10" x="622.16" y="330.31" width="56.71" height="2.06"/><rect class="cls-10" x="622.16" y="320.21" width="56.71" height="2.06"/><polygon class="cls-4" points="624.45 292.05 637.2 276.98 664.86 276.98 676.39 292.05 624.45 292.05"/><polygon class="cls-21" points="713.48 453.91 678.88 453.91 678.88 361.05 682.34 361.07 682.34 350.07 710.01 350.07 710.01 361.07 713.48 361.07 713.48 453.91"/><rect class="cls-25" x="682.34" y="350.07" width="27.67" height="11"/><path class="cls-1" d="M686.71,353h1.43a1.79,1.79,0,0,1,1.79,1.79v6.3a0,0,0,0,1,0,0h-5a0,0,0,0,1,0,0v-6.3A1.79,1.79,0,0,1,686.71,353Z"/><path class="cls-1" d="M695.17,353h1.43a1.79,1.79,0,0,1,1.79,1.79v6.3a0,0,0,0,1,0,0h-5a0,0,0,0,1,0,0v-6.3A1.79,1.79,0,0,1,695.17,353Z"/><path class="cls-1" d="M703.63,353h1.43a1.79,1.79,0,0,1,1.79,1.79v6.3a0,0,0,0,1,0,0h-5a0,0,0,0,1,0,0v-6.3A1.79,1.79,0,0,1,703.63,353Z"/><rect class="cls-1" x="681.85" y="363.71" width="3.56" height="3.89"/><rect class="cls-1" x="688.14" y="363.71" width="3.56" height="3.89"/><rect class="cls-1" x="694.43" y="363.71" width="3.56" height="3.89"/><rect class="cls-1" x="700.72" y="363.71" width="3.56" height="3.89"/><rect class="cls-1" x="707.01" y="363.71" width="3.56" height="3.89"/><rect class="cls-1" x="681.85" y="369.03" width="3.56" height="3.89"/><rect class="cls-1" x="688.14" y="369.03" width="3.56" height="3.89"/><rect class="cls-1" x="694.43" y="369.03" width="3.56" height="3.89"/><rect class="cls-1" x="700.72" y="369.03" width="3.56" height="3.89"/><rect class="cls-1" x="707.01" y="369.03" width="3.56" height="3.89"/><rect class="cls-1" x="681.85" y="374.34" width="3.56" height="3.89"/><rect class="cls-1" x="688.14" y="374.34" width="3.56" height="3.89"/><rect class="cls-1" x="694.43" y="374.34" width="3.56" height="3.89"/><rect class="cls-1" x="700.72" y="374.34" width="3.56" height="3.89"/><rect class="cls-1" x="707.01" y="374.34" width="3.56" height="3.89"/><rect class="cls-1" x="681.85" y="379.66" width="3.56" height="3.89"/><rect class="cls-1" x="688.14" y="379.66" width="3.56" height="3.89"/><rect class="cls-1" x="694.43" y="379.66" width="3.56" height="3.89"/><rect class="cls-1" x="700.72" y="379.66" width="3.56" height="3.89"/><rect class="cls-1" x="707.01" y="379.66" width="3.56" height="3.89"/><rect class="cls-1" x="681.85" y="384.97" width="3.56" height="3.89"/><rect class="cls-1" x="688.14" y="384.97" width="3.56" height="3.89"/><rect class="cls-1" x="694.43" y="384.97" width="3.56" height="3.89"/><rect class="cls-1" x="700.72" y="384.97" width="3.56" height="3.89"/><rect class="cls-1" x="707.01" y="384.97" width="3.56" height="3.89"/><rect class="cls-1" x="681.85" y="390.29" width="3.56" height="3.89"/><rect class="cls-1" x="688.14" y="390.29" width="3.56" height="3.89"/><rect class="cls-1" x="694.43" y="390.29" width="3.56" height="3.89"/><rect class="cls-1" x="700.72" y="390.29" width="3.56" height="3.89"/><rect class="cls-1" x="707.01" y="390.29" width="3.56" height="3.89"/><rect class="cls-1" x="681.85" y="395.6" width="3.56" height="3.89"/><rect class="cls-1" x="688.14" y="395.6" width="3.56" height="3.89"/><rect class="cls-1" x="694.43" y="395.6" width="3.56" height="3.89"/><rect class="cls-1" x="700.72" y="395.6" width="3.56" height="3.89"/><rect class="cls-1" x="707.01" y="395.6" width="3.56" height="3.89"/><rect class="cls-1" x="681.85" y="400.92" width="3.56" height="3.89"/><rect class="cls-1" x="688.14" y="400.92" width="3.56" height="3.89"/><rect class="cls-1" x="694.43" y="400.92" width="3.56" height="3.89"/><rect class="cls-1" x="700.72" y="400.92" width="3.56" height="3.89"/><rect class="cls-1" x="707.01" y="400.92" width="3.56" height="3.89"/><rect class="cls-1" x="681.85" y="406.24" width="3.56" height="3.89"/><rect class="cls-1" x="688.14" y="406.24" width="3.56" height="3.89"/><rect class="cls-1" x="694.43" y="406.24" width="3.56" height="3.89"/><rect class="cls-1" x="700.72" y="406.24" width="3.56" height="3.89"/><rect class="cls-1" x="707.01" y="406.24" width="3.56" height="3.89"/><rect class="cls-1" x="681.85" y="411.55" width="3.56" height="3.89"/><rect class="cls-1" x="688.14" y="411.55" width="3.56" height="3.89"/><rect class="cls-1" x="694.43" y="411.55" width="3.56" height="3.89"/><rect class="cls-1" x="700.72" y="411.55" width="3.56" height="3.89"/><rect class="cls-1" x="707.01" y="411.55" width="3.56" height="3.89"/><rect class="cls-1" x="681.85" y="416.87" width="3.56" height="3.89"/><rect class="cls-1" x="688.14" y="416.87" width="3.56" height="3.89"/><rect class="cls-1" x="694.43" y="416.87" width="3.56" height="3.89"/><rect class="cls-1" x="700.72" y="416.87" width="3.56" height="3.89"/><rect class="cls-1" x="707.01" y="416.87" width="3.56" height="3.89"/><rect class="cls-1" x="681.85" y="422.18" width="3.56" height="3.89"/><rect class="cls-1" x="688.14" y="422.18" width="3.56" height="3.89"/><rect class="cls-1" x="694.43" y="422.18" width="3.56" height="3.89"/><rect class="cls-1" x="700.72" y="422.18" width="3.56" height="3.89"/><rect class="cls-1" x="707.01" y="422.18" width="3.56" height="3.89"/><rect class="cls-1" x="681.85" y="427.5" width="3.56" height="3.89"/><rect class="cls-1" x="688.14" y="427.5" width="3.56" height="3.89"/><rect class="cls-1" x="694.43" y="427.5" width="3.56" height="3.89"/><rect class="cls-1" x="700.72" y="427.5" width="3.56" height="3.89"/><rect class="cls-1" x="707.01" y="427.5" width="3.56" height="3.89"/><rect class="cls-1" x="681.85" y="432.81" width="3.56" height="3.89"/><rect class="cls-1" x="688.14" y="432.81" width="3.56" height="3.89"/><rect class="cls-1" x="694.43" y="432.81" width="3.56" height="3.89"/><rect class="cls-1" x="700.72" y="432.81" width="3.56" height="3.89"/><rect class="cls-1" x="707.01" y="432.81" width="3.56" height="3.89"/><rect class="cls-1" x="681.85" y="438.13" width="3.56" height="3.89"/><rect class="cls-1" x="688.14" y="438.13" width="3.56" height="3.89"/><rect class="cls-1" x="694.43" y="438.13" width="3.56" height="3.89"/><rect class="cls-1" x="700.72" y="438.13" width="3.56" height="3.89"/><rect class="cls-1" x="707.01" y="438.13" width="3.56" height="3.89"/><rect class="cls-1" x="681.85" y="443.45" width="3.56" height="3.89"/><rect class="cls-1" x="688.14" y="443.45" width="3.56" height="3.89"/><rect class="cls-1" x="694.43" y="443.45" width="3.56" height="3.89"/><rect class="cls-1" x="700.72" y="443.45" width="3.56" height="3.89"/><rect class="cls-1" x="707.01" y="443.45" width="3.56" height="3.89"/><rect class="cls-21" x="684.38" y="354.49" width="23.2" height="0.37"/><rect class="cls-25" x="684.38" y="354.49" width="23.2" height="0.37"/><rect class="cls-21" x="706.15" y="343.59" width="0.69" height="6.48"/><polygon class="cls-26" points="392.88 453.91 392.88 388.36 387.44 388.36 387.44 289.13 367.75 278.25 321.12 278.25 321.12 298.2 315.68 298.2 315.68 453.91 392.88 453.91"/><polygon class="cls-27" points="327.59 274.24 350.65 258.96 357.39 258.96 379.67 280.97 361.96 276.24 327.59 276.24 327.59 274.24"/><polygon class="cls-28" points="357.39 258.96 379.67 280.97 361.96 276.24 357.39 258.96"/><rect class="cls-21" x="325.65" y="274.23" width="42.1" height="4.02"/><polygon class="cls-21" points="367.75 274.24 381.74 282.14 381.74 285.56 367.75 278.25 367.75 274.24"/><polygon class="cls-23" points="367.75 274.24 381.74 282.14 381.74 285.56 367.75 278.25 367.75 274.24"/><polygon class="cls-2" points="392.88 453.91 392.88 388.36 387.44 388.36 387.44 289.13 367.75 278.25 321.12 278.25 321.12 298.2 315.68 298.2 315.68 453.91 392.88 453.91"/><g class="cls-29"><rect class="cls-27" x="312.96" y="282.4" width="54.8" height="1.75"/><rect class="cls-27" x="312.96" y="287.07" width="54.8" height="1.75"/><rect class="cls-27" x="312.96" y="291.75" width="54.8" height="1.75"/><rect class="cls-27" x="312.96" y="296.42" width="54.8" height="1.75"/><rect class="cls-27" x="312.96" y="301.09" width="54.8" height="1.75"/><rect class="cls-27" x="312.96" y="305.77" width="54.8" height="1.75"/><rect class="cls-27" x="312.96" y="310.44" width="54.8" height="1.75"/><rect class="cls-27" x="312.96" y="315.12" width="54.8" height="1.75"/><rect class="cls-27" x="312.96" y="319.79" width="54.8" height="1.75"/><rect class="cls-27" x="312.96" y="324.47" width="54.8" height="1.75"/><rect class="cls-27" x="312.96" y="329.14" width="54.8" height="1.75"/><rect class="cls-27" x="312.96" y="333.82" width="54.8" height="1.75"/><rect class="cls-27" x="312.96" y="338.49" width="54.8" height="1.75"/><rect class="cls-27" x="312.96" y="343.16" width="54.8" height="1.75"/><rect class="cls-27" x="312.96" y="347.84" width="54.8" height="1.75"/><rect class="cls-27" x="312.96" y="352.51" width="54.8" height="1.75"/><rect class="cls-27" x="312.96" y="357.19" width="54.8" height="1.75"/><rect class="cls-27" x="312.96" y="361.86" width="54.8" height="1.75"/><rect class="cls-27" x="312.96" y="366.54" width="54.8" height="1.75"/><rect class="cls-27" x="312.96" y="371.21" width="54.8" height="1.75"/><rect class="cls-27" x="312.96" y="375.89" width="54.8" height="1.75"/><rect class="cls-27" x="312.96" y="380.56" width="54.8" height="1.75"/><rect class="cls-27" x="312.96" y="385.24" width="54.8" height="1.75"/><rect class="cls-27" x="312.96" y="389.91" width="81.22" height="1.75"/><rect class="cls-27" x="312.96" y="394.58" width="81.22" height="1.75"/><rect class="cls-27" x="312.96" y="399.26" width="81.22" height="1.75"/><rect class="cls-27" x="312.96" y="403.93" width="81.22" height="1.75"/><rect class="cls-27" x="312.96" y="408.61" width="81.22" height="1.75"/><rect class="cls-27" x="312.96" y="413.28" width="81.22" height="1.75"/><rect class="cls-27" x="312.96" y="417.96" width="81.22" height="1.75"/><rect class="cls-27" x="312.96" y="422.63" width="81.22" height="1.75"/><rect class="cls-27" x="312.96" y="427.31" width="81.22" height="1.75"/><rect class="cls-27" x="312.96" y="431.98" width="81.22" height="1.75"/><rect class="cls-27" x="312.96" y="436.66" width="81.22" height="1.75"/><rect class="cls-27" x="312.96" y="441.33" width="81.22" height="1.75"/><rect class="cls-27" x="312.96" y="446" width="81.22" height="1.75"/><rect class="cls-27" x="312.96" y="450.68" width="81.22" height="1.75"/></g><polygon class="cls-2" points="367.75 278.25 387.44 289.13 387.44 388.36 367.75 388.36 367.75 278.25"/><g class="cls-30"><polygon class="cls-27" points="388.93 295.32 367.75 284.14 367.75 282.4 388.93 293.57 388.93 295.32"/><polygon class="cls-27" points="388.93 299.99 367.75 288.82 367.75 287.07 388.93 298.24 388.93 299.99"/><polygon class="cls-27" points="388.93 304.66 367.75 293.49 367.75 291.74 388.93 302.91 388.93 304.66"/><polygon class="cls-27" points="388.93 309.33 367.75 298.16 367.75 296.41 388.93 307.58 388.93 309.33"/><polygon class="cls-27" points="388.93 314 367.75 302.83 367.75 301.08 388.93 312.25 388.93 314"/><polygon class="cls-27" points="388.93 318.67 367.75 307.5 367.75 305.75 388.93 316.92 388.93 318.67"/><polygon class="cls-27" points="388.93 323.34 367.75 312.17 367.75 310.42 388.93 321.59 388.93 323.34"/><polygon class="cls-27" points="388.93 328.01 367.75 316.84 367.75 315.09 388.93 326.26 388.93 328.01"/><polygon class="cls-27" points="388.93 332.69 367.75 321.51 367.75 319.76 388.93 330.94 388.93 332.69"/><polygon class="cls-27" points="388.93 337.36 367.75 326.18 367.75 324.43 388.93 335.61 388.93 337.36"/><polygon class="cls-27" points="388.93 342.03 367.75 330.85 367.75 329.11 388.93 340.28 388.93 342.03"/><polygon class="cls-27" points="388.93 346.7 367.75 335.52 367.75 333.78 388.93 344.95 388.93 346.7"/><polygon class="cls-27" points="388.93 351.37 367.75 340.2 367.75 338.45 388.93 349.62 388.93 351.37"/><polygon class="cls-27" points="388.93 356.04 367.75 344.87 367.75 343.12 388.93 354.29 388.93 356.04"/><polygon class="cls-27" points="388.93 360.71 367.75 349.54 367.75 347.79 388.93 358.96 388.93 360.71"/><polygon class="cls-27" points="388.93 365.38 367.75 354.21 367.75 352.46 388.93 363.63 388.93 365.38"/><polygon class="cls-27" points="388.93 370.05 367.75 358.88 367.75 357.13 388.93 368.3 388.93 370.05"/><polygon class="cls-27" points="388.93 374.72 367.75 363.55 367.75 361.8 388.93 372.98 388.93 374.72"/><polygon class="cls-27" points="388.93 379.39 367.75 368.22 367.75 366.47 388.93 377.65 388.93 379.39"/><polygon class="cls-27" points="388.93 384.06 367.75 372.89 367.75 371.14 388.93 382.32 388.93 384.06"/><polygon class="cls-27" points="388.93 388.74 367.75 377.56 367.75 375.81 388.93 386.99 388.93 388.74"/><polygon class="cls-27" points="388.93 393.41 367.75 382.23 367.75 380.49 388.93 391.66 388.93 393.41"/><polygon class="cls-27" points="388.93 398.08 367.75 386.9 367.75 385.16 388.93 396.33 388.93 398.08"/></g><rect class="cls-31" x="545.8" y="267.35" width="55.57" height="186.55"/><rect class="cls-32" x="545.8" y="267.35" width="55.57" height="1.15"/><rect class="cls-32" x="545.8" y="271.5" width="55.57" height="1.15"/><rect class="cls-32" x="545.8" y="275.66" width="55.57" height="1.15"/><rect class="cls-32" x="545.8" y="279.81" width="55.57" height="1.15"/><rect class="cls-32" x="545.8" y="283.96" width="55.57" height="1.15"/><rect class="cls-32" x="545.8" y="288.12" width="55.57" height="1.15"/><rect class="cls-32" x="545.8" y="292.27" width="55.57" height="1.15"/><rect class="cls-32" x="545.8" y="296.42" width="55.57" height="1.15"/><rect class="cls-32" x="545.8" y="300.58" width="55.57" height="1.15"/><rect class="cls-32" x="545.8" y="304.73" width="55.57" height="1.15"/><rect class="cls-32" x="545.8" y="308.88" width="55.57" height="1.15"/><rect class="cls-32" x="545.8" y="313.03" width="55.57" height="1.15"/><rect class="cls-32" x="545.8" y="317.19" width="55.57" height="1.15"/><rect class="cls-32" x="545.8" y="321.34" width="55.57" height="1.15"/><rect class="cls-32" x="545.8" y="325.49" width="55.57" height="1.15"/><rect class="cls-32" x="545.8" y="329.65" width="55.57" height="1.15"/><rect class="cls-32" x="545.8" y="333.8" width="55.57" height="1.15"/><rect class="cls-32" x="545.8" y="337.95" width="55.57" height="1.15"/><rect class="cls-32" x="545.8" y="342.11" width="55.57" height="1.15"/><rect class="cls-32" x="545.8" y="346.26" width="55.57" height="1.15"/><rect class="cls-32" x="545.8" y="350.41" width="55.57" height="1.15"/><rect class="cls-32" x="545.8" y="354.57" width="55.57" height="1.15"/><rect class="cls-32" x="545.8" y="358.72" width="55.57" height="1.15"/><rect class="cls-32" x="545.8" y="362.87" width="55.57" height="1.15"/><rect class="cls-32" x="545.8" y="367.02" width="55.57" height="1.15"/><rect class="cls-32" x="545.8" y="371.18" width="55.57" height="1.15"/><rect class="cls-32" x="545.8" y="375.33" width="55.57" height="1.15"/><rect class="cls-32" x="545.8" y="379.48" width="55.57" height="1.15"/><rect class="cls-32" x="545.8" y="383.64" width="55.57" height="1.15"/><rect class="cls-32" x="545.8" y="387.79" width="55.57" height="1.15"/><rect class="cls-32" x="545.8" y="391.94" width="55.57" height="1.15"/><rect class="cls-32" x="545.8" y="396.1" width="55.57" height="1.15"/><rect class="cls-32" x="545.8" y="400.25" width="55.57" height="1.15"/><rect class="cls-32" x="545.8" y="404.4" width="55.57" height="1.15"/><rect class="cls-32" x="545.8" y="408.55" width="55.57" height="1.15"/><rect class="cls-32" x="545.8" y="412.71" width="55.57" height="1.15"/><rect class="cls-32" x="545.8" y="416.86" width="55.57" height="1.15"/><rect class="cls-32" x="545.8" y="421.01" width="55.57" height="1.15"/><rect class="cls-32" x="545.8" y="425.17" width="55.57" height="1.15"/><rect class="cls-32" x="545.8" y="429.32" width="55.57" height="1.15"/><rect class="cls-32" x="545.8" y="433.47" width="55.57" height="1.15"/><rect class="cls-32" x="545.8" y="437.63" width="55.57" height="1.15"/><rect class="cls-32" x="545.8" y="441.78" width="55.57" height="1.15"/><rect class="cls-32" x="545.8" y="445.93" width="55.57" height="1.15"/><rect class="cls-32" x="545.8" y="450.08" width="55.57" height="1.15"/><polygon class="cls-21" points="480.56 413.89 480.56 407.35 493.26 396.76 510 396.76 522.12 407.25 522.12 413.89 480.56 413.89"/><polygon class="cls-27" points="480.56 407.35 493.26 396.76 510 396.76 522.12 407.25 480.56 407.35"/><rect class="cls-10" x="477.48" y="413.89" width="47.52" height="40.02"/><rect class="cls-1" x="483.04" y="418.51" width="3.37" height="4.18"/><rect class="cls-1" x="488.41" y="418.51" width="3.37" height="4.18"/><rect class="cls-1" x="493.78" y="418.51" width="3.37" height="4.18"/><rect class="cls-1" x="499.15" y="418.51" width="3.37" height="4.18"/><rect class="cls-1" x="504.52" y="418.51" width="3.37" height="4.18"/><rect class="cls-1" x="509.89" y="418.51" width="3.37" height="4.18"/><rect class="cls-1" x="515.26" y="418.51" width="3.37" height="4.18"/><rect class="cls-1" x="483.04" y="425.36" width="3.37" height="4.18"/><rect class="cls-1" x="488.41" y="425.36" width="3.37" height="4.18"/><rect class="cls-1" x="493.78" y="425.36" width="3.37" height="4.18"/><rect class="cls-1" x="499.15" y="425.36" width="3.37" height="4.18"/><rect class="cls-1" x="504.52" y="425.36" width="3.37" height="4.18"/><rect class="cls-1" x="509.89" y="425.36" width="3.37" height="4.18"/><rect class="cls-1" x="515.26" y="425.36" width="3.37" height="4.18"/><rect class="cls-1" x="483.04" y="432.21" width="3.37" height="4.18"/><rect class="cls-1" x="488.41" y="432.21" width="3.37" height="4.18"/><rect class="cls-1" x="493.78" y="432.21" width="3.37" height="4.18"/><rect class="cls-1" x="499.15" y="432.21" width="3.37" height="4.18"/><rect class="cls-1" x="504.52" y="432.21" width="3.37" height="4.18"/><rect class="cls-1" x="509.89" y="432.21" width="3.37" height="4.18"/><rect class="cls-1" x="515.26" y="432.21" width="3.37" height="4.18"/><rect class="cls-1" x="483.04" y="439.07" width="3.37" height="4.18"/><rect class="cls-1" x="488.41" y="439.07" width="3.37" height="4.18"/><rect class="cls-1" x="493.78" y="439.07" width="3.37" height="4.18"/><rect class="cls-1" x="499.15" y="439.07" width="3.37" height="4.18"/><rect class="cls-1" x="504.52" y="439.07" width="3.37" height="4.18"/><rect class="cls-1" x="509.89" y="439.07" width="3.37" height="4.18"/><rect class="cls-1" x="515.26" y="439.07" width="3.37" height="4.18"/><rect class="cls-12" x="253.18" y="352.12" width="82.92" height="101.79"/><rect class="cls-12" x="258.76" y="340.3" width="71.76" height="11.82"/><rect class="cls-33" x="258.76" y="340.3" width="71.76" height="11.82"/><rect class="cls-12" x="262.72" y="325.26" width="63.69" height="15.04"/><rect class="cls-34" x="262.72" y="325.26" width="63.69" height="15.04"/><rect class="cls-12" x="268.3" y="313.44" width="53.86" height="11.82"/><rect class="cls-35" x="268.3" y="313.44" width="53.86" height="11.82"/><rect class="cls-12" x="272.7" y="306.73" width="46.37" height="6.71"/><rect class="cls-36" x="272.7" y="306.73" width="46.37" height="6.71"/><rect class="cls-12" x="275.05" y="301.09" width="41.09" height="5.64"/><rect class="cls-37" x="275.05" y="301.09" width="41.09" height="5.64"/><rect class="cls-12" x="279.1" y="292.27" width="35.49" height="8.82"/><rect class="cls-38" x="279.1" y="292.27" width="35.49" height="8.82"/><polygon class="cls-12" points="336.1 352.12 351.95 354.53 351.95 453.91 336.1 453.91 336.1 352.12"/><polygon class="cls-39" points="336.1 352.12 351.95 354.53 351.95 453.91 336.1 453.91 336.1 352.12"/><polygon class="cls-12" points="330.52 340.3 349.01 344.46 349.01 354.09 336.1 352.12 330.52 352.12 330.52 340.3"/><polygon class="cls-40" points="330.52 340.3 349.01 344.46 349.01 354.09 336.1 352.12 330.52 352.12 330.52 340.3"/><polygon class="cls-12" points="326.41 325.26 346.37 331.84 346.37 343.87 330.52 340.3 326.41 340.3 326.41 325.26"/><polygon class="cls-41" points="326.41 325.26 346.37 331.84 346.37 343.87 330.52 340.3 326.41 340.3 326.41 325.26"/><polygon class="cls-12" points="322.15 313.44 341.38 320.69 341.38 330.19 326.41 325.26 322.15 325.26 322.15 313.44"/><polygon class="cls-42" points="322.15 313.44 341.38 320.69 341.38 330.19 326.41 325.26 322.15 325.26 322.15 313.44"/><polygon class="cls-12" points="319.07 306.73 336.1 313.84 336.1 318.7 322.15 313.44 319.07 313.44 319.07 306.73"/><polygon class="cls-23" points="319.07 306.73 336.1 313.84 336.1 318.7 322.15 313.44 319.07 313.44 319.07 306.73"/><polygon class="cls-12" points="316.14 301.09 331.4 308.4 331.4 311.88 319.07 306.73 316.14 306.73 316.14 301.09"/><polygon class="cls-43" points="316.14 301.09 331.4 308.4 331.4 311.88 319.07 306.73 316.14 306.73 316.14 301.09"/><polygon class="cls-12" points="314.59 292.27 327.58 300.62 327.58 306.58 316.14 301.09 314.59 301.09 314.59 292.27"/><polygon class="cls-44" points="314.59 292.27 327.58 300.62 327.58 306.58 316.14 301.09 314.59 301.09 314.59 292.27"/><rect class="cls-4" x="263.45" y="343.87" width="6.33" height="6.33"/><rect class="cls-4" x="272.77" y="343.87" width="6.33" height="6.33"/><rect class="cls-4" x="282.09" y="343.87" width="6.33" height="6.33"/><rect class="cls-4" x="291.42" y="343.87" width="6.33" height="6.33"/><rect class="cls-4" x="300.74" y="343.87" width="6.33" height="6.33"/><rect class="cls-4" x="310.06" y="343.87" width="6.33" height="6.33"/><rect class="cls-4" x="319.38" y="343.87" width="6.33" height="6.33"/><rect class="cls-4" x="256.79" y="356.1" width="6.62" height="10.44"/><rect class="cls-4" x="266.54" y="356.1" width="6.62" height="10.44"/><rect class="cls-4" x="276.29" y="356.1" width="6.62" height="10.44"/><rect class="cls-4" x="286.04" y="356.1" width="6.62" height="10.44"/><rect class="cls-4" x="295.79" y="356.1" width="6.62" height="10.44"/><rect class="cls-4" x="305.54" y="356.1" width="6.62" height="10.44"/><rect class="cls-4" x="315.29" y="356.1" width="6.62" height="10.44"/><rect class="cls-4" x="325.15" y="356.1" width="6.62" height="10.44"/><rect class="cls-4" x="256.79" y="370.4" width="6.62" height="10.44"/><rect class="cls-4" x="266.54" y="370.4" width="6.62" height="10.44"/><rect class="cls-4" x="276.29" y="370.4" width="6.62" height="10.44"/><rect class="cls-4" x="286.04" y="370.4" width="6.62" height="10.44"/><rect class="cls-4" x="295.79" y="370.4" width="6.62" height="10.44"/><rect class="cls-4" x="305.54" y="370.4" width="6.62" height="10.44"/><rect class="cls-4" x="315.29" y="370.4" width="6.62" height="10.44"/><rect class="cls-4" x="325.15" y="370.4" width="6.62" height="10.44"/><rect class="cls-4" x="256.79" y="384.7" width="6.62" height="10.44"/><rect class="cls-4" x="266.54" y="384.7" width="6.62" height="10.44"/><rect class="cls-4" x="276.29" y="384.7" width="6.62" height="10.44"/><rect class="cls-4" x="286.04" y="384.7" width="6.62" height="10.44"/><rect class="cls-4" x="295.79" y="384.7" width="6.62" height="10.44"/><rect class="cls-4" x="305.54" y="384.7" width="6.62" height="10.44"/><rect class="cls-4" x="315.29" y="384.7" width="6.62" height="10.44"/><rect class="cls-4" x="325.15" y="384.7" width="6.62" height="10.44"/><rect class="cls-4" x="256.79" y="399" width="6.62" height="10.44"/><rect class="cls-4" x="266.54" y="399" width="6.62" height="10.44"/><rect class="cls-4" x="276.29" y="399" width="6.62" height="10.44"/><rect class="cls-4" x="286.04" y="399" width="6.62" height="10.44"/><rect class="cls-4" x="295.79" y="399" width="6.62" height="10.44"/><rect class="cls-4" x="305.54" y="399" width="6.62" height="10.44"/><rect class="cls-4" x="315.29" y="399" width="6.62" height="10.44"/><rect class="cls-4" x="325.15" y="399" width="6.62" height="10.44"/><rect class="cls-4" x="256.79" y="413.3" width="6.62" height="10.44"/><rect class="cls-4" x="266.54" y="413.3" width="6.62" height="10.44"/><rect class="cls-4" x="276.29" y="413.3" width="6.62" height="10.44"/><rect class="cls-4" x="286.04" y="413.3" width="6.62" height="10.44"/><rect class="cls-4" x="295.79" y="413.3" width="6.62" height="10.44"/><rect class="cls-4" x="305.54" y="413.3" width="6.62" height="10.44"/><rect class="cls-4" x="315.29" y="413.3" width="6.62" height="10.44"/><rect class="cls-4" x="325.15" y="413.3" width="6.62" height="10.44"/><rect class="cls-4" x="256.79" y="427.6" width="6.62" height="10.44"/><rect class="cls-4" x="266.54" y="427.6" width="6.62" height="10.44"/><rect class="cls-4" x="276.29" y="427.6" width="6.62" height="10.44"/><rect class="cls-4" x="286.04" y="427.6" width="6.62" height="10.44"/><rect class="cls-4" x="295.79" y="427.6" width="6.62" height="10.44"/><rect class="cls-4" x="305.54" y="427.6" width="6.62" height="10.44"/><rect class="cls-4" x="315.29" y="427.6" width="6.62" height="10.44"/><rect class="cls-4" x="325.15" y="427.6" width="6.62" height="10.44"/><rect class="cls-4" x="264.75" y="328.23" width="6" height="10.83"/><rect class="cls-4" x="273.59" y="328.23" width="6" height="10.83"/><rect class="cls-4" x="282.43" y="328.23" width="6" height="10.83"/><rect class="cls-4" x="291.26" y="328.23" width="6" height="10.83"/><rect class="cls-4" x="300.1" y="328.23" width="6" height="10.83"/><rect class="cls-4" x="308.94" y="328.23" width="6" height="10.83"/><rect class="cls-4" x="317.77" y="328.23" width="6" height="10.83"/><rect class="cls-4" x="270.59" y="315.76" width="4.96" height="8.07"/><rect class="cls-4" x="277.9" y="315.76" width="4.96" height="8.07"/><rect class="cls-4" x="285.2" y="315.76" width="4.96" height="8.07"/><rect class="cls-4" x="292.51" y="315.76" width="4.96" height="8.07"/><rect class="cls-4" x="299.81" y="315.76" width="4.96" height="8.07"/><rect class="cls-4" x="307.12" y="315.76" width="4.96" height="8.07"/><rect class="cls-4" x="314.43" y="315.76" width="4.96" height="8.07"/><rect class="cls-4" x="274.14" y="308.11" width="5.16" height="4.04"/><rect class="cls-4" x="281.74" y="308.11" width="5.16" height="4.04"/><rect class="cls-4" x="289.34" y="308.11" width="5.16" height="4.04"/><rect class="cls-4" x="296.95" y="308.11" width="5.16" height="4.04"/><rect class="cls-4" x="304.55" y="308.11" width="5.16" height="4.04"/><rect class="cls-4" x="312.15" y="308.11" width="5.16" height="4.04"/><rect class="cls-4" x="276.59" y="302.45" width="4.58" height="3.32"/><rect class="cls-4" x="283.34" y="302.45" width="4.58" height="3.32"/><rect class="cls-4" x="290.09" y="302.45" width="4.58" height="3.32"/><rect class="cls-4" x="296.84" y="302.45" width="4.58" height="3.32"/><rect class="cls-4" x="303.6" y="302.45" width="4.58" height="3.32"/><rect class="cls-4" x="310.35" y="302.45" width="4.58" height="3.32"/><rect class="cls-4" x="280.64" y="293.8" width="4.63" height="6.36"/><rect class="cls-4" x="287.46" y="293.8" width="4.63" height="6.36"/><rect class="cls-4" x="294.29" y="293.8" width="4.63" height="6.36"/><rect class="cls-4" x="301.11" y="293.8" width="4.63" height="6.36"/><rect class="cls-4" x="307.93" y="293.8" width="4.63" height="6.36"/><path class="cls-11" d="M.41,127.55a42.06,42.06,0,0,1,32.8,4,43.71,43.71,0,0,1,20.42,26.82c10.51-2,21.39-3,31.86-.82s20.56,7.71,26.49,16.61a10.61,10.61,0,0,0,3,3.52,9.11,9.11,0,0,0,4.55.86c12.6.22,25.34.72,37.49,4.08s23.6,10.06,30.94,20.3H.41Z"/><path class="cls-11" d="M.41,138a42.1,42.1,0,0,1,32.8,4,43.71,43.71,0,0,1,20.42,26.82c10.51-2,21.39-3,31.86-.81s20.56,7.71,26.49,16.6a10.61,10.61,0,0,0,3,3.52,9.12,9.12,0,0,0,4.55.87c12.6.22,25.34.71,37.49,4.08s23.6,10,30.94,20.3H.41Z"/><rect class="cls-12" x="555.8" y="421.59" width="119.4" height="32.32"/><rect class="cls-4" x="554.62" y="419.54" width="121.63" height="2.05"/><path class="cls-4" d="M561.34,424.86h.89a1.88,1.88,0,0,1,1.88,1.88v5.46a0,0,0,0,1,0,0h-4.66a0,0,0,0,1,0,0v-5.46A1.88,1.88,0,0,1,561.34,424.86Z"/><path class="cls-4" d="M569.56,424.86h.89a1.88,1.88,0,0,1,1.88,1.88v5.46a0,0,0,0,1,0,0h-4.66a0,0,0,0,1,0,0v-5.46A1.88,1.88,0,0,1,569.56,424.86Z"/><path class="cls-4" d="M577.78,424.86h.89a1.88,1.88,0,0,1,1.88,1.88v5.46a0,0,0,0,1,0,0h-4.66a0,0,0,0,1,0,0v-5.46A1.88,1.88,0,0,1,577.78,424.86Z"/><path class="cls-4" d="M586,424.86h.89a1.88,1.88,0,0,1,1.88,1.88v5.46a0,0,0,0,1,0,0h-4.66a0,0,0,0,1,0,0v-5.46A1.88,1.88,0,0,1,586,424.86Z"/><path class="cls-4" d="M594.21,424.86h.89a1.88,1.88,0,0,1,1.88,1.88v5.46a0,0,0,0,1,0,0h-4.66a0,0,0,0,1,0,0v-5.46A1.88,1.88,0,0,1,594.21,424.86Z"/><path class="cls-4" d="M602.43,424.86h.89a1.88,1.88,0,0,1,1.88,1.88v5.46a0,0,0,0,1,0,0h-4.66a0,0,0,0,1,0,0v-5.46A1.88,1.88,0,0,1,602.43,424.86Z"/><path class="cls-4" d="M610.65,424.86h.89a1.88,1.88,0,0,1,1.88,1.88v5.46a0,0,0,0,1,0,0h-4.66a0,0,0,0,1,0,0v-5.46a1.88,1.88,0,0,1,1.88-1.88Z"/><path class="cls-4" d="M618.87,424.86h.89a1.88,1.88,0,0,1,1.88,1.88v5.46a0,0,0,0,1,0,0H617a0,0,0,0,1,0,0v-5.46A1.88,1.88,0,0,1,618.87,424.86Z"/><path class="cls-4" d="M627.08,424.86H628a1.88,1.88,0,0,1,1.88,1.88v5.46a0,0,0,0,1,0,0H625.2a0,0,0,0,1,0,0v-5.46a1.88,1.88,0,0,1,1.88-1.88Z"/><path class="cls-4" d="M635.3,424.86h.89a1.88,1.88,0,0,1,1.88,1.88v5.46a0,0,0,0,1,0,0h-4.66a0,0,0,0,1,0,0v-5.46A1.88,1.88,0,0,1,635.3,424.86Z"/><path class="cls-4" d="M643.52,424.86h.89a1.88,1.88,0,0,1,1.88,1.88v5.46a0,0,0,0,1,0,0h-4.66a0,0,0,0,1,0,0v-5.46A1.88,1.88,0,0,1,643.52,424.86Z"/><path class="cls-4" d="M651.74,424.86h.89a1.88,1.88,0,0,1,1.88,1.88v5.46a0,0,0,0,1,0,0h-4.66a0,0,0,0,1,0,0v-5.46A1.88,1.88,0,0,1,651.74,424.86Z"/><path class="cls-4" d="M660,424.86h.89a1.88,1.88,0,0,1,1.88,1.88v5.46a0,0,0,0,1,0,0h-4.66a0,0,0,0,1,0,0v-5.46A1.88,1.88,0,0,1,660,424.86Z"/><path class="cls-4" d="M668.17,424.86h.89a1.88,1.88,0,0,1,1.88,1.88v5.46a0,0,0,0,1,0,0h-4.66a0,0,0,0,1,0,0v-5.46A1.88,1.88,0,0,1,668.17,424.86Z"/><rect class="cls-4" x="559.46" y="434.53" width="4.66" height="7.35"/><rect class="cls-4" x="567.67" y="434.53" width="4.66" height="7.35"/><rect class="cls-4" x="575.89" y="434.53" width="4.66" height="7.35"/><rect class="cls-4" x="584.11" y="434.53" width="4.66" height="7.35"/><rect class="cls-4" x="592.33" y="434.53" width="4.66" height="7.35"/><rect class="cls-4" x="600.55" y="434.53" width="4.66" height="7.35"/><rect class="cls-4" x="608.76" y="434.53" width="4.66" height="7.35"/><rect class="cls-4" x="616.98" y="434.53" width="4.66" height="7.35"/><rect class="cls-4" x="625.2" y="434.53" width="4.66" height="7.35"/><rect class="cls-4" x="633.42" y="434.53" width="4.66" height="7.35"/><rect class="cls-4" x="641.63" y="434.53" width="4.66" height="7.35"/><rect class="cls-4" x="649.85" y="434.53" width="4.66" height="7.35"/><rect class="cls-4" x="658.07" y="434.53" width="4.66" height="7.35"/><rect class="cls-4" x="666.29" y="434.53" width="4.66" height="7.35"/><rect class="cls-4" x="559.46" y="444.19" width="4.66" height="4.73"/><rect class="cls-4" x="567.67" y="444.19" width="4.66" height="4.73"/><rect class="cls-4" x="575.89" y="444.19" width="4.66" height="4.73"/><rect class="cls-4" x="584.11" y="444.19" width="4.66" height="4.73"/><rect class="cls-4" x="592.33" y="444.19" width="4.66" height="4.73"/><rect class="cls-4" x="600.55" y="444.19" width="4.66" height="4.73"/><rect class="cls-4" x="608.76" y="444.19" width="4.66" height="4.73"/><rect class="cls-4" x="616.98" y="444.19" width="4.66" height="4.73"/><rect class="cls-4" x="625.2" y="444.19" width="4.66" height="4.73"/><rect class="cls-4" x="633.42" y="444.19" width="4.66" height="4.73"/><rect class="cls-4" x="641.63" y="444.19" width="4.66" height="4.73"/><rect class="cls-4" x="649.85" y="444.19" width="4.66" height="4.73"/><rect class="cls-4" x="658.07" y="444.19" width="4.66" height="4.73"/><rect class="cls-4" x="666.29" y="444.19" width="4.66" height="4.73"/><polygon class="cls-6" points="202.78 453.91 202.78 366.79 319.22 366.79 319.22 403.37 327.59 403.37 327.59 453.91 202.78 453.91"/><rect class="cls-4" x="210.32" y="358.69" width="99.12" height="8.1"/><rect class="cls-10" x="210.32" y="358.69" width="99.12" height="8.1"/><rect class="cls-23" x="212.62" y="360.51" width="4.61" height="6.28"/><rect class="cls-23" x="219.74" y="360.51" width="4.61" height="6.28"/><rect class="cls-23" x="301.98" y="360.51" width="4.61" height="6.28"/><rect class="cls-10" x="319.18" y="403.37" width="8.41" height="50.54"/><rect class="cls-45" x="207.32" y="373.8" width="23.1" height="6.46"/><rect class="cls-45" x="235.38" y="373.8" width="23.1" height="6.46"/><rect class="cls-45" x="263.45" y="373.8" width="23.1" height="6.46"/><rect class="cls-45" x="291.51" y="373.8" width="23.1" height="6.46"/><rect class="cls-45" x="207.32" y="384.5" width="23.1" height="6.46"/><rect class="cls-45" x="235.38" y="384.5" width="23.1" height="6.46"/><rect class="cls-45" x="263.45" y="384.5" width="23.1" height="6.46"/><rect class="cls-45" x="291.51" y="384.5" width="23.1" height="6.46"/><rect class="cls-45" x="207.32" y="395.2" width="23.1" height="6.46"/><rect class="cls-45" x="235.38" y="395.2" width="23.1" height="6.46"/><rect class="cls-45" x="263.45" y="395.2" width="23.1" height="6.46"/><rect class="cls-45" x="291.51" y="395.2" width="23.1" height="6.46"/><rect class="cls-45" x="207.32" y="405.9" width="23.1" height="6.46"/><rect class="cls-45" x="235.38" y="405.9" width="23.1" height="6.46"/><rect class="cls-45" x="263.45" y="405.9" width="23.1" height="6.46"/><rect class="cls-45" x="291.51" y="405.9" width="23.1" height="6.46"/><rect class="cls-45" x="207.32" y="416.6" width="23.1" height="6.46"/><rect class="cls-45" x="235.38" y="416.6" width="23.1" height="6.46"/><rect class="cls-45" x="263.45" y="416.6" width="23.1" height="6.46"/><rect class="cls-45" x="291.51" y="416.6" width="23.1" height="6.46"/><rect class="cls-45" x="207.32" y="427.3" width="23.1" height="6.46"/><rect class="cls-45" x="235.38" y="427.3" width="23.1" height="6.46"/><rect class="cls-45" x="263.45" y="427.3" width="23.1" height="6.46"/><rect class="cls-45" x="291.51" y="427.3" width="23.1" height="6.46"/><rect class="cls-45" x="207.32" y="438.01" width="23.1" height="6.46"/><rect class="cls-45" x="235.38" y="438.01" width="23.1" height="6.46"/><rect class="cls-45" x="263.45" y="438.01" width="23.1" height="6.46"/><rect class="cls-45" x="291.51" y="438.01" width="23.1" height="6.46"/><polygon class="cls-2" points="410.03 453.91 410.03 305.71 418.32 305.71 418.32 287.84 469.1 287.84 469.1 295.87 474.8 295.87 474.8 369.71 478.94 369.71 478.94 431.37 487.49 431.37 487.49 453.91 410.03 453.91"/><g class="cls-46"><line class="cls-47" x1="411.71" y1="284.47" x2="411.71" y2="458.05"/><line class="cls-47" x1="415.08" y1="284.47" x2="415.08" y2="458.05"/><line class="cls-47" x1="418.45" y1="284.47" x2="418.45" y2="458.05"/><line class="cls-47" x1="421.81" y1="284.47" x2="421.81" y2="458.05"/><line class="cls-47" x1="425.18" y1="284.47" x2="425.18" y2="458.05"/><line class="cls-47" x1="428.55" y1="284.47" x2="428.55" y2="458.05"/><line class="cls-47" x1="431.92" y1="284.47" x2="431.92" y2="458.05"/><line class="cls-47" x1="435.29" y1="284.47" x2="435.29" y2="458.05"/><line class="cls-47" x1="438.65" y1="284.47" x2="438.65" y2="458.05"/><line class="cls-47" x1="442.02" y1="284.47" x2="442.02" y2="458.05"/><line class="cls-47" x1="445.39" y1="284.47" x2="445.39" y2="458.05"/><line class="cls-47" x1="448.76" y1="284.47" x2="448.76" y2="458.05"/><line class="cls-47" x1="452.13" y1="284.47" x2="452.13" y2="458.05"/><line class="cls-47" x1="455.49" y1="284.47" x2="455.49" y2="458.05"/><line class="cls-47" x1="458.86" y1="284.47" x2="458.86" y2="458.05"/><line class="cls-47" x1="462.23" y1="284.47" x2="462.23" y2="458.05"/><line class="cls-47" x1="465.6" y1="284.47" x2="465.6" y2="458.05"/><line class="cls-47" x1="468.97" y1="284.47" x2="468.97" y2="458.05"/><line class="cls-47" x1="472.33" y1="284.47" x2="472.33" y2="458.05"/><line class="cls-47" x1="475.7" y1="284.47" x2="475.7" y2="458.05"/><line class="cls-47" x1="479.07" y1="284.47" x2="479.07" y2="458.05"/><line class="cls-47" x1="482.44" y1="284.47" x2="482.44" y2="458.05"/><line class="cls-47" x1="485.81" y1="284.47" x2="485.81" y2="458.05"/><line class="cls-47" x1="407.24" y1="291.01" x2="489.63" y2="291.01"/><line class="cls-47" x1="407.24" y1="295.68" x2="489.63" y2="295.68"/><line class="cls-47" x1="407.24" y1="300.36" x2="489.63" y2="300.36"/><line class="cls-47" x1="407.24" y1="305.03" x2="489.63" y2="305.03"/><line class="cls-47" x1="407.24" y1="309.71" x2="489.63" y2="309.71"/><line class="cls-47" x1="407.24" y1="314.38" x2="489.63" y2="314.38"/><line class="cls-47" x1="407.24" y1="319.06" x2="489.63" y2="319.06"/><line class="cls-47" x1="407.24" y1="323.73" x2="489.63" y2="323.73"/><line class="cls-47" x1="407.24" y1="328.41" x2="489.63" y2="328.41"/><line class="cls-47" x1="407.24" y1="333.08" x2="489.63" y2="333.08"/><line class="cls-47" x1="407.24" y1="337.76" x2="489.63" y2="337.76"/><line class="cls-47" x1="407.24" y1="342.43" x2="489.63" y2="342.43"/><line class="cls-47" x1="407.24" y1="347.1" x2="489.63" y2="347.1"/><line class="cls-47" x1="407.24" y1="351.78" x2="489.63" y2="351.78"/><line class="cls-47" x1="407.24" y1="356.45" x2="489.63" y2="356.45"/><line class="cls-47" x1="407.24" y1="361.13" x2="489.63" y2="361.13"/><line class="cls-47" x1="407.24" y1="365.8" x2="489.63" y2="365.8"/><line class="cls-47" x1="407.24" y1="370.48" x2="489.63" y2="370.48"/><line class="cls-47" x1="407.24" y1="375.15" x2="489.63" y2="375.15"/><line class="cls-47" x1="407.24" y1="379.83" x2="489.63" y2="379.83"/><line class="cls-47" x1="407.24" y1="384.5" x2="489.63" y2="384.5"/><line class="cls-47" x1="407.24" y1="389.18" x2="489.63" y2="389.18"/><line class="cls-47" x1="407.24" y1="393.85" x2="489.63" y2="393.85"/><line class="cls-47" x1="407.24" y1="398.52" x2="489.63" y2="398.52"/><line class="cls-47" x1="407.24" y1="403.2" x2="489.63" y2="403.2"/><line class="cls-47" x1="407.24" y1="407.87" x2="489.63" y2="407.87"/><line class="cls-47" x1="407.24" y1="412.55" x2="489.63" y2="412.55"/><line class="cls-47" x1="407.24" y1="417.22" x2="489.63" y2="417.22"/><line class="cls-47" x1="407.24" y1="421.9" x2="489.63" y2="421.9"/><line class="cls-47" x1="407.24" y1="426.57" x2="489.63" y2="426.57"/><line class="cls-47" x1="407.24" y1="431.25" x2="489.63" y2="431.25"/><line class="cls-47" x1="407.24" y1="435.92" x2="489.63" y2="435.92"/><line class="cls-47" x1="407.24" y1="440.6" x2="489.63" y2="440.6"/><line class="cls-47" x1="407.24" y1="445.27" x2="489.63" y2="445.27"/><line class="cls-47" x1="407.24" y1="449.94" x2="489.63" y2="449.94"/></g><path class="cls-4" d="M421.61,287.84C424.28,279.22,432.94,272,444,272s20.4,7.52,22.42,15.81Z"/><rect class="cls-42" x="418.32" y="287.84" width="50.78" height="8.06"/><rect class="cls-42" x="410.03" y="305.71" width="8.29" height="148.19"/><rect class="cls-42" x="474.8" y="369.71" width="4.27" height="84.2"/><rect class="cls-43" x="479.07" y="431.37" width="8.42" height="22.54"/></g></g></g></svg>