<svg xmlns="http://www.w3.org/2000/svg" viewBox="0 0 666.67 466.67"><defs><style>.cls-1{fill:#fff;}</style></defs><g id="Calque_2" data-name="Calque 2"><g id="Calque_1-2" data-name="Calque 1"><path class="cls-1" d="M500,466.67H133.33C59.8,466.67,0,406.87,0,333.33,0,271.3,42.57,219,100,204.2l0-4.2C100,89.7,189.7,0,300,0A199,199,0,0,1,488.33,133.83c98.07-8.2,178.34,70.44,178.34,166.17C666.67,391.9,591.9,466.67,500,466.67ZM130.17,266.47c-33.6.2-63.5,30.1-63.5,66.86A66.73,66.73,0,0,0,133.33,400H500a100,100,0,0,0,0-200c-8.1,0-16.67,1.37-27,4.33l-35.83,10.24L431,177.8A133.1,133.1,0,1,0,169.4,227l8.13,40-47.36-.53Z"/></g></g></svg>